<svg width="46" height="46" viewBox="0 0 46 46" fill="none" xmlns="http://www.w3.org/2000/svg">
<g id="Layer_x0020_1">
<g id="_1421344023328">
<path id="Vector" d="M44.3956 27.9476C41.42 40.01 29.2284 47.3766 17.1645 44.4002C5.1057 41.4246 -2.26089 29.2322 0.716038 17.1707C3.69032 5.10698 15.882 -2.26016 27.9421 0.715453C40.0051 3.69106 47.3713 15.8848 44.3953 27.9478L44.3955 27.9476L44.3956 27.9476Z" fill="#F7931A"/>
<path id="Vector_2" d="M32.4701 19.3275C32.9106 16.3318 30.6268 14.7277 27.5066 13.6616L28.5079 9.60263L26.0371 8.99344L25.0624 12.9455C24.4128 12.7852 23.7458 12.6343 23.0828 12.4847L24.0647 8.50654L21.5954 7.89735L20.5935 11.955C20.056 11.834 19.5281 11.7144 19.0159 11.5883L19.0187 11.5755L15.6114 10.7336L14.9611 13.3726C14.9611 13.3726 16.7941 13.788 16.7556 13.8139C17.7561 14.061 17.9386 14.7225 17.9098 15.2472L16.7692 19.8713C16.8381 19.8886 16.9275 19.9137 17.0261 19.953C16.9437 19.9328 16.856 19.9107 16.765 19.8891L15.1662 26.3668C15.0447 26.6709 14.7357 27.1276 14.0362 26.9562C14.061 26.992 12.2404 26.5127 12.2404 26.5127L11.0214 29.3423L14.2367 30.1354C14.8349 30.2838 15.4211 30.4392 15.9983 30.5853L14.9867 34.6908L17.4546 35.3L18.4565 31.2381C19.1307 31.4193 19.785 31.5864 20.4256 31.7439L19.4271 35.7867L21.898 36.3958L22.9095 32.2981C27.1222 33.0845 30.2874 32.7554 31.6107 28.9436C32.6769 25.8747 31.5453 24.1088 29.3272 22.961C30.9397 22.5849 32.1524 21.5207 32.471 19.3278L32.4703 19.3272L32.4701 19.3275ZM26.848 27.2525C26.0924 30.3207 20.9256 28.6759 19.2508 28.2644L20.5933 22.8253C22.268 23.2391 27.6376 24.0527 26.8481 27.2525L26.848 27.2525ZM27.592 19.2951C26.9027 22.0859 22.6023 20.6795 21.2075 20.3355L22.4247 15.4026C23.8194 15.7466 28.31 16.384 27.5922 19.2951L27.592 19.2951Z" fill="white"/>
</g>
</g>
</svg>
