<svg width="46" height="46" viewBox="0 0 46 46" fill="none" xmlns="http://www.w3.org/2000/svg">
<path d="M22.611 45.0554C35.0374 45.0247 45.0861 34.9263 45.0554 22.4999C45.0247 10.0735 34.9263 0.0248554 22.4999 0.0555345C10.0736 0.0862136 0.0248703 10.1846 0.0555495 22.611C0.0862286 35.0374 10.1847 45.0861 22.611 45.0554Z" fill="#988430"/>
<path d="M22.6092 44.3346C34.6375 44.3049 44.3643 34.53 44.3346 22.5016C44.3049 10.4733 34.53 0.74649 22.5016 0.776186C10.4733 0.805882 0.746486 10.5808 0.776182 22.6092C0.805879 34.6375 10.5808 44.3643 22.6092 44.3346Z" fill="#7A6A2A"/>
<path d="M22.6082 43.8757C34.3831 43.8467 43.905 34.2777 43.8759 22.5028C43.8468 10.7279 34.2778 1.20601 22.5029 1.23508C10.7281 1.26415 1.20618 10.8332 1.23525 22.608C1.26433 34.3829 10.8333 43.9048 22.6082 43.8757Z" fill="#BA9F33"/>
<path fill-rule="evenodd" clip-rule="evenodd" d="M9.88679 20.1838C9.75906 20.0677 9.62413 19.9514 9.5 19.8353C9.37588 19.7192 9.24839 19.6029 9.12066 19.4868L8.74106 19.1277C8.67898 19.066 8.61333 19.0117 8.55125 18.9497C8.4892 18.8953 8.41633 18.8336 8.35427 18.779C7.85054 18.3034 7.34392 17.8278 6.84715 17.3519C7.36166 17.8203 7.86537 18.2853 8.37991 18.7607L8.55867 18.9388C8.62074 19.0004 8.6864 19.0549 8.74847 19.1167L9.12781 19.4652C9.25554 19.5813 9.37966 19.6976 9.50742 19.8243C9.63517 19.9509 9.7593 20.0675 9.88702 20.1833L9.88679 20.1838ZM3.21679 20.1283C3.21679 20.1283 5.04485 20.3129 5.93724 20.4381C6.76385 20.5527 9.34986 20.9431 9.34986 20.9431L3.21679 20.1283ZM3.21679 20.1283C3.73026 20.1707 4.24375 20.2239 4.75724 20.2773C5.01938 20.3021 5.27073 20.3306 5.52208 20.3554L5.90786 20.3983C6.03535 20.416 6.15923 20.434 6.28672 20.4519L7.81659 20.692L8.58131 20.8175C8.83269 20.8606 9.08409 20.9075 9.34628 20.9505C9.09494 20.9257 8.83277 20.8898 8.5814 20.854L7.81673 20.7467L6.2869 20.5249C6.15941 20.5069 6.03551 20.4816 5.90803 20.4639L5.522 20.4204C5.27066 20.3956 5.00849 20.3598 4.75713 20.3311C4.24362 20.2707 3.7301 20.2062 3.21655 20.1276L3.21679 20.1283ZM9.16911 21.4197C9.16911 21.4197 7.2189 21.9198 6.56033 22.1108C5.91278 22.2907 3.95178 22.8927 3.95178 22.8927L9.16888 21.4199L9.16911 21.4197Z" fill="#CFB66C"/>
<path fill-rule="evenodd" clip-rule="evenodd" d="M9.16896 21.4198C8.73607 21.5483 8.30558 21.6732 7.86643 21.7909L6.56385 22.1436C6.13097 22.2721 5.70048 22.397 5.26879 22.5255L4.62124 22.7054C4.40659 22.7678 4.18832 22.8229 3.96648 22.8856C4.18086 22.813 4.39932 22.7388 4.61396 22.6764L5.26145 22.4674C5.69432 22.3315 6.1248 22.203 6.55647 22.0673C6.9966 21.957 7.42975 21.8393 7.86988 21.7326C8.28818 21.6259 8.72856 21.5195 9.16896 21.42L9.16896 21.4198ZM4.22794 24.0936C4.4423 24.0129 6.91529 22.8529 7.4899 22.5819C7.77757 22.4463 8.61395 22.1471 8.61395 22.1471L4.22794 24.0936Z" fill="#CFB66C"/>
<path fill-rule="evenodd" clip-rule="evenodd" d="M4.22811 24.0935C4.41705 24.0211 4.5954 23.9326 4.77711 23.8483L5.31529 23.5957L6.39544 23.0725C6.75501 22.9005 7.10447 22.7108 7.47535 22.549C7.66451 22.4687 7.85371 22.4027 8.04268 22.3403L8.33045 22.2486C8.42855 22.2229 8.51967 22.1934 8.61825 22.1677C8.25868 22.3397 7.88008 22.4864 7.52001 22.6545C7.16045 22.834 6.79265 22.9806 6.42153 23.1416L5.32329 23.6284C4.95454 23.7788 4.59493 23.9398 4.22787 24.0935L4.22811 24.0935ZM4.4706 25.1009C4.4706 25.1009 6.70991 23.7812 7.4807 23.3569C7.88431 23.1303 9.18974 22.4788 9.18974 22.4788L4.4706 25.1009Z" fill="#CFB66C"/>
<path fill-rule="evenodd" clip-rule="evenodd" d="M4.47082 25.1014C4.84872 24.8675 5.23406 24.6299 5.61938 24.3887L6.19452 24.0376C6.39079 23.9207 6.57988 23.811 6.77999 23.6941C6.97626 23.577 7.16533 23.4601 7.36522 23.3504C7.46037 23.2914 7.56008 23.24 7.66341 23.1968L7.96879 23.0432C8.37246 22.8456 8.77613 22.6442 9.2017 22.4721C8.81639 22.7171 8.41994 22.9257 8.02375 23.1412C7.82746 23.2509 7.6273 23.3498 7.43101 23.4595C7.23472 23.5692 7.04565 23.6863 6.84551 23.7924C6.64924 23.9093 6.46015 24.0189 6.26025 24.125L5.66753 24.4505L4.4713 25.1014L4.47082 25.1014ZM9.17243 22.7669C9.17243 22.7669 7.78068 23.8407 7.33008 24.1841C6.87949 24.5274 5.55299 25.4919 5.55299 25.4919L9.17243 22.7669Z" fill="#CFB66C"/>
<path fill-rule="evenodd" clip-rule="evenodd" d="M17.1961 31.3793L16.4793 30.0304L16.8901 28.34L19.8472 27.1896L18.581 24.6079L19.1971 21.9959L20.3602 19.6554L23.9705 19.0786L26.6182 16.5418L32.3499 16.9608L33.49 23.0855L31.3428 30.8056L30.1185 34.8027L25.1165 35.0044L22.7898 33.401L20.0673 32.2715L17.1961 31.3793Z" fill="#E2CC85"/>
<path fill-rule="evenodd" clip-rule="evenodd" d="M25.9706 31.314C25.9706 31.314 25.2795 31.6325 24.0992 31.5624C23.7565 31.1046 21.3642 30.8957 21.3642 30.8957C21.3642 30.8957 21.0654 30.8055 20.5379 31.0252C20.0071 31.2425 19.5045 31.2171 19.0351 31.3347C18.5657 31.4522 18.0979 30.8419 17.7376 30.7153C17.3772 30.5816 16.8991 30.2588 16.8991 30.2588L15.8908 30.1629L13.8646 29.3123L10.6409 26.1164L9.77046 27.4866L9.50512 29.1802L10.4823 31.184L13.1059 33.5621L18.2134 34.8455L21.2366 33.9467L25.0227 32.3354L25.9706 31.3137L25.9706 31.314Z" fill="#F1D789"/>
<path fill-rule="evenodd" clip-rule="evenodd" d="M7.8077 20.0361L8.45085 18.0723L9.2198 16.8032L11.7057 16.5894L10.9647 18.7686L8.89516 22.4728L9.76611 25.7728L8.23896 26.541L7.76726 25.8214L7.3847 24.1695L7.35468 22.3127L7.8077 20.0361Z" fill="#F4ECB4"/>
<path fill-rule="evenodd" clip-rule="evenodd" d="M10.624 31.2173L10.1455 30.5522C10.1455 30.5522 10.0173 30.2357 10.0896 29.9588C10.1609 29.6783 10.1505 29.6601 10.114 29.5546C10.0775 29.4491 9.77062 29.0858 9.78809 28.7725C9.80531 28.4557 9.76161 28.3502 9.99379 28.0986C10.237 27.8541 10.1633 27.4319 10.1633 27.4319L10.4805 27.6277L10.5523 27.5183C10.5523 27.5183 10.6689 27.609 10.6693 27.7511C10.6942 27.5544 10.5864 26.6444 10.8261 26.4364C11.0658 26.2285 11.4947 27.4068 11.4947 27.4068L11.2284 25.6962L10.5504 23.9433L9.34862 22.3442L9.27226 20.5785L9.27188 20.4256C9.27188 20.4256 8.72413 21.2718 8.5729 21.9393C8.46483 22.3982 8.72828 22.9546 8.67543 23.6138C8.63313 24.2694 8.57852 24.2184 8.73924 24.4777C8.89996 24.7369 9.29104 25.27 9.13911 25.6563C9.00529 25.988 8.54584 25.7561 8.54584 25.7561C8.54584 25.7561 8.45554 26.0256 8.33195 26.1243C8.28787 25.9644 8.24034 25.8625 8.15274 25.7648C8.14545 25.8267 8.12766 25.9105 8.12766 25.9105C8.12766 25.9105 8.04688 25.6594 7.96594 25.3428C7.85594 24.921 7.73792 24.3642 7.63158 24.0659C7.58833 24.2371 7.48041 24.758 7.48041 24.758L7.54431 25.5589L7.84558 26.6576L8.13536 27.3769L8.41785 28.2573L8.66291 28.8485L8.86059 29.2994L9.03422 30.3149L9.86269 31.1865L10.3038 31.3822L10.6236 31.2175L10.624 31.2173Z" fill="#F3E19D"/>
<path fill-rule="evenodd" clip-rule="evenodd" d="M8.23682 18.4331C8.23682 18.4331 7.64579 19.4426 7.47742 20.4591C7.30904 21.4757 7.15858 22.5498 7.26999 23.9329C7.38263 25.3273 7.59234 26.1822 7.76137 26.7935C8.05188 27.8087 8.80129 29.2195 8.80129 29.2195L8.82659 29.1647C8.70063 28.9274 8.59994 28.6774 8.52619 28.4191C8.42684 28.0334 8.38923 27.5748 8.29775 27.3675C8.21708 27.1603 8.082 26.9821 8.01585 26.7273C7.95333 26.4837 7.9423 26.0978 7.75151 25.8107C7.67106 25.6943 7.57191 25.3888 7.54211 25.0831C7.5045 24.6243 7.55795 24.1108 7.51323 23.6887C7.43133 22.9862 7.37568 22.5095 7.44749 22.1414C7.5193 21.7733 7.89568 20.7279 8.12667 19.8971C8.27824 19.3652 8.18593 18.9175 8.46511 18.4544C8.7443 17.995 8.91466 17.5905 8.97564 17.31C9.04702 17.0549 8.23586 18.4331 8.23586 18.4331L8.23682 18.4331Z" fill="#F2E8B0"/>
<path fill-rule="evenodd" clip-rule="evenodd" d="M11.0503 18.0219C11.0503 18.0219 10.7448 18.1139 10.5995 18.2743C10.4542 18.4275 10.3926 18.5551 10.1967 18.8141C10.0007 19.0731 9.99022 19.2843 9.8307 19.6087C9.6714 19.9259 9.3193 20.4036 9.27604 20.5748C9.23278 20.7461 9.16204 21.5471 9.07202 21.9261C8.99279 22.305 9.16506 22.7706 9.16506 22.7706L9.37231 22.7262C9.37231 22.7262 9.37298 22.9957 9.58103 23.1774C9.78883 23.3552 9.82337 22.5722 9.82337 22.5722L10.5923 19.9526L11.7589 19.1561L11.8848 18.515L11.0498 18.0219L11.0503 18.0219Z" fill="#F5EEC0"/>
<path fill-rule="evenodd" clip-rule="evenodd" d="M11.6212 19.2076C11.6212 19.2076 11.0715 19.2452 10.8027 19.4426C10.6937 19.5228 10.6502 19.5884 10.534 19.6871C10.3197 19.866 10.1014 20.0304 9.99665 20.2645C9.88059 20.4975 9.75402 20.8511 9.66831 21.5176C9.63252 21.798 9.63316 22.0565 9.60827 22.2824C9.57255 22.5882 9.51867 22.8322 9.54813 23.0025C9.58547 23.3519 9.9464 23.5332 9.98242 23.9298L10.7279 23.5495L11.4238 20.7769L12.9142 19.8373L12.0671 18.8928L11.6203 19.2059L11.6212 19.2076Z" fill="#E6DB9D"/>
<path fill-rule="evenodd" clip-rule="evenodd" d="M7.72951 37.8751C7.73256 37.8477 7.73561 37.8203 7.73866 37.7923C7.84531 36.856 7.86204 36.1465 7.94086 35.7021C8.05571 35.072 8.13529 34.8376 8.11647 34.602C8.0901 34.2235 8.06037 33.9469 8.09613 33.6554C8.14966 33.2694 8.52725 32.8098 8.51566 32.493C8.5076 32.2418 8.37976 32.0784 8.27018 31.9258C8.16061 31.7732 8.07293 31.646 8.07293 31.646C8.07293 31.646 8.81806 31.1308 8.80576 29.0627C8.82101 29.067 8.83569 29.0731 8.84948 29.0809L9.21974 30.1247L9.47177 30.4298L10.441 32.226L11.6855 33.4282L13.5233 34.6577L14.677 35.907L14.8016 39.2453L13.3029 41.2005L13.0577 41.647C11.099 40.6697 9.30191 39.3975 7.72927 37.8748L7.72951 37.8751Z" fill="#E5CB7A"/>
<path fill-rule="evenodd" clip-rule="evenodd" d="M12.3306 41.0577C12.3306 41.0577 12.355 40.6427 12.6966 40.3723C12.7515 40.4631 12.788 40.5506 12.7773 40.6159C12.839 40.5068 13.2705 39.8066 14.2494 39.6221C15.2284 39.4413 15.4633 38.7272 15.4633 38.7272L17.5373 36.8326L19.9093 34.6386L22.7976 33.6156L24.1477 33.2808C24.1477 33.2808 24.1734 33.3791 24.1231 33.5977C24.3741 33.579 24.9308 33.4502 25.5092 33.2448C25.742 33.1533 25.9605 33.1162 26.0772 33.2362C26.2487 33.3958 26.2751 33.7745 26.2865 34.0001C26.5666 33.9375 26.89 33.6674 27.1497 33.6922C27.565 33.7348 27.9339 34.2219 28.3563 34.2208C28.9133 34.2194 29.1635 33.8766 29.5526 33.6061C29.7853 33.4454 30.1196 33.2447 30.3086 33.1091C30.7592 32.7766 35.5323 31.3048 35.5323 31.3048L37.2073 31.4099L37.4813 33.2078L37.3489 37.9097C37.3312 37.9268 37.3135 37.9446 37.2955 37.9617L29.6906 41.9575L19.1394 43.6017C16.7741 43.2212 14.4905 42.442 12.3859 41.2973L12.3313 41.0574L12.3306 41.0577Z" fill="#D8C173"/>
<path fill-rule="evenodd" clip-rule="evenodd" d="M8.37128 38.4716C8.52051 38.1575 8.65474 37.8949 8.67827 37.801C8.69745 37.9901 8.7328 38.4049 8.80301 38.8459C8.65758 38.7229 8.51368 38.598 8.37128 38.4714L8.37128 38.4716Z" fill="#F1D789"/>
<path fill-rule="evenodd" clip-rule="evenodd" d="M16.0926 42.8772L17.4568 42.4941L17.5733 42.5303C17.5733 42.5303 17.6353 42.5666 17.6356 42.6902C17.8065 42.5917 17.9522 42.6093 18.0576 42.5438C18.1124 42.66 18.1678 43.0458 18.4084 43.0925C18.6596 43.1466 18.9287 42.982 19.2013 42.774C19.4701 42.5585 19.7761 42.2882 20.0079 42.1785C20.0935 42.3348 20.1693 42.4963 20.235 42.662C20.5401 42.4174 21.0693 41.4258 21.8265 41.442C22.0441 40.9242 22.4086 40.4816 22.8751 40.1688C23.5766 39.6902 24.0169 39.6526 24.5669 39.695C24.7845 39.4107 25.0531 39.1694 25.3588 38.9831C25.4498 39.0193 25.7015 39.1716 26.0143 39.0251C26.3308 38.8789 26.686 38.3136 27.1555 38.2397C27.4085 38.2042 27.666 38.2576 27.884 38.3908C27.884 38.3908 29.2487 37.0292 30.1915 36.5755C30.1547 36.4664 30.081 36.0552 31.1854 35.1421C31.2475 35.1967 31.2041 35.3497 31.2478 35.358C31.2659 35.3579 31.5356 35.2409 31.8767 34.9777C32.2983 34.6601 32.8034 34.3274 33.1089 34.2357C33.6845 34.0632 34.2964 34.4111 34.2964 34.4111C34.3483 34.3745 34.4061 34.3473 34.4673 34.3305C34.6127 34.3047 34.7183 34.2862 34.7983 34.2577C34.7916 34.4471 34.898 34.7708 34.8003 35.0514C34.9144 35.1152 35.0353 35.1662 35.1607 35.2034C35.0993 35.3381 34.9653 35.6807 34.7401 35.8452C34.9294 35.9357 34.9551 36.0412 35.2249 36.132C35.1161 36.2851 34.9379 36.5479 34.8586 36.7089C34.7789 36.8802 34.4929 37.5909 34.3661 37.8604C34.2321 38.1303 34.0514 38.6259 33.9641 38.7254C33.8767 38.825 33.5612 39.247 33.3179 39.455C33.5337 39.3743 34.4167 39.1028 34.7913 38.9999C34.6801 39.1638 34.1165 40.0045 33.5747 40.813C30.9747 42.3801 28.0705 43.3751 25.0557 43.7316C22.0409 44.0882 18.9848 43.7981 16.0909 42.8808L16.0926 42.8772Z" fill="#E0CD81"/>
<path fill-rule="evenodd" clip-rule="evenodd" d="M11.711 19.109C11.711 19.109 11.3944 19.1097 11.3326 19.1536C11.2708 19.1974 11.6497 19.2877 11.7662 19.3311C11.8827 19.3744 12.1345 19.574 12.2004 19.7341C12.2627 19.8869 14.4784 20.7732 14.4784 20.7732L16.0438 20.6892L16.5817 19.9422L15.5527 19.0455L16.2675 16.9211L15.3141 17.0764L13.0238 18.45L11.8743 18.8935L11.711 19.109Z" fill="#DFC57C"/>
<path fill-rule="evenodd" clip-rule="evenodd" d="M15.1506 19.8032C15.1733 19.8398 15.2053 19.8697 15.2432 19.8901C15.2812 19.9104 15.3238 19.9204 15.3669 19.919C15.6909 19.9182 15.9894 19.9977 16.1136 20.161C16.3219 20.4228 16.8992 21.2588 16.8992 21.2588L18.2766 21.7505L18.3614 20.1298L16.8552 19.0888L15.1456 19.7228L15.1458 19.8029L15.1496 19.8029L15.1506 19.8032Z" fill="#E5CC7C"/>
<path fill-rule="evenodd" clip-rule="evenodd" d="M14.8822 20.4046C14.8822 20.4046 15.1333 20.4222 15.4498 20.3048C15.7663 20.1874 16.2862 19.9351 16.5123 20.0329C16.8292 20.1668 16.7647 20.5893 17.1081 20.9674C17.3161 21.2 17.6948 21.1918 17.9102 21.4426C18.1256 21.6933 18.8643 21.5749 18.8643 21.5749L19.1483 23.0862L18.027 24.5309L17.6635 26.3229L16.1424 26.3266L14.7514 25.7788L14.0629 24.1245L14.401 22.4489L14.8822 20.4046Z" fill="#D2C281"/>
<path fill-rule="evenodd" clip-rule="evenodd" d="M17.8248 20.47C17.8625 20.4815 17.9018 20.4876 17.9412 20.4879C17.8976 20.5245 17.8066 20.6047 17.8436 20.8122C17.8806 21.0197 17.9977 21.2815 17.8999 21.4418C17.9785 21.5273 18.0372 21.6291 18.0718 21.7399C18.1341 21.9183 18.1528 22.082 18.5567 22.1067C18.4985 22.1427 18.4449 22.1856 18.397 22.2345C18.397 22.2345 18.6779 22.4776 18.8205 22.7029C18.966 22.6963 19.3516 22.5753 19.3516 22.5753L19.4319 22.6299L19.6028 22.5574C19.6028 22.5574 19.4426 22.4959 19.558 22.1061C19.6664 21.7636 19.7648 21.7816 19.7732 21.7561C19.7815 21.7307 19.8524 21.37 19.852 21.2243C19.906 21.0351 19.9483 20.4597 19.9483 20.4597L19.8287 19.1894L19.1726 18.7941L18.6385 18.2811L18.1383 19.2289L17.8081 19.5597L17.7847 20.3789L17.8248 20.47Z" fill="#E2C270"/>
<path fill-rule="evenodd" clip-rule="evenodd" d="M19.3984 19.4032C19.3984 19.4032 19.5157 19.7341 19.5602 19.9889C19.5756 19.9393 19.584 19.8878 19.5853 19.8359C19.5853 19.8359 19.6775 20.3382 19.696 20.5458C19.7324 20.5383 19.7679 20.5274 19.7762 20.5636C19.7844 20.5998 19.8685 21.004 19.8498 21.2297C20.0008 20.9792 20.2101 20.7689 20.4598 20.6166C20.6053 20.5251 20.7762 20.4265 20.9547 20.4186C21.235 20.4107 21.4392 20.596 21.7743 20.5951C22.5823 20.5932 23.3129 19.9978 23.8512 19.8146C24.2476 19.6787 24.5896 19.5797 24.8293 19.3605C24.9457 19.262 25.1528 19.0431 25.3411 18.7184C25.5913 18.2858 25.8524 17.9091 26.1146 17.8611C25.996 17.8832 25.8753 17.8921 25.7547 17.8875C25.7547 17.8875 25.8347 17.8071 25.9702 17.6976C26.1058 17.588 26.2682 17.453 26.501 17.4524C26.9162 17.4514 27.1237 17.5126 27.3567 17.512C27.5898 17.5042 27.7243 17.4494 27.7243 17.4494C27.7243 17.4494 27.9688 17.6199 28.5184 17.6186C29.0682 17.6244 29.436 17.6708 29.7238 17.6958C30.0117 17.7207 30.976 17.6125 31.2527 17.62C31.4331 17.6265 31.6104 17.6694 31.7738 17.7461L30.8753 15.1563L27.664 12.3635L25.7595 13.7189L22.8321 16.6606L19.995 17.7198L19.4031 18.3875L19.4056 19.4032L19.3984 19.4032Z" fill="#CCB360"/>
<path fill-rule="evenodd" clip-rule="evenodd" d="M25.7661 17.9019C25.7661 17.9019 25.8461 17.8218 25.9802 17.7122C26.1143 17.6027 26.2784 17.4674 26.5112 17.4668C26.9262 17.4658 27.1339 17.5272 27.367 17.5266C27.6 17.5189 27.7345 17.4638 27.7345 17.4638C27.7345 17.4638 27.9792 17.6341 28.5286 17.6327C29.0784 17.6386 29.4462 17.6849 29.7341 17.7097C30.0219 17.7344 30.9862 17.6267 31.2629 17.6339C31.4433 17.6402 31.6205 17.6832 31.7838 17.7601L31.3767 16.5923L30.9051 15.7016L29.5616 14.2375C29.5616 14.2375 27.9512 13.2949 27.939 13.2878C27.9318 13.2806 27.3816 13.1363 27.3816 13.1363L25.9274 14.0209L24.6144 17.443L24.5908 18.163L25.4471 18.5651C25.661 18.2045 25.8972 17.9159 26.1191 17.8789C25.9188 17.9013 25.7659 17.9016 25.7659 17.9016L25.7661 17.9019Z" fill="#D5B457"/>
<path fill-rule="evenodd" clip-rule="evenodd" d="M25.7487 18.146C25.6213 18.1535 25.5158 18.1283 25.4863 18.0374C25.3764 17.7319 25.2889 17.6885 25.1975 17.6887C25.106 17.6889 24.9832 17.8858 24.91 17.904C24.8369 17.9222 24.7494 17.6788 24.7494 17.6788L24.6691 17.6425C24.6691 17.6425 24.2002 17.9494 23.8699 18.3107C23.5396 18.672 22.9985 19.2851 22.7549 19.3947C22.5113 19.5042 21.6738 19.543 21.3874 19.6056C21.101 19.6683 20.7837 19.8766 20.7402 19.924C20.6966 19.9714 20.8681 20.0219 20.8937 20.0691C20.9192 20.1127 20.6132 20.0952 20.5878 20.1419C20.5699 20.1784 20.6604 20.3855 20.7053 20.491C20.7834 20.452 20.869 20.4306 20.9562 20.4285C21.2365 20.4206 21.441 20.6058 21.7758 20.605C22.5841 20.603 23.3144 20.0077 23.8527 19.8242C24.2494 19.6886 24.5914 19.5893 24.8311 19.3703C24.9472 19.2719 25.1543 19.0527 25.3428 18.7283C25.4805 18.5059 25.6149 18.298 25.7494 18.1448L25.7487 18.146Z" fill="#D2B257"/>
<path fill-rule="evenodd" clip-rule="evenodd" d="M14.2011 36.1928C14.2011 36.1928 14.1284 35.9234 13.4595 35.2298C13.2696 35.0337 13.1528 34.8706 13.0251 34.754C12.7076 34.456 12.5216 34.3765 12.2956 34.206C11.7996 33.8395 11.2608 33.8408 10.8447 33.3904C10.4286 32.94 9.94289 32.0786 9.60471 31.1979C9.27134 30.3177 9.17945 30.0376 9.17938 30.0122C9.17932 29.9868 9.2701 29.8154 9.38656 29.8406C9.50302 29.8657 9.50358 30.0913 9.533 30.146C9.59121 30.2351 9.65719 30.319 9.73017 30.3965C9.90178 30.5929 10.1462 30.8275 10.2709 31.1781C10.2447 30.8796 10.1419 30.5486 10.1419 30.5486C10.1419 30.5486 10.7837 30.9512 11.3307 31.372C11.8816 31.793 12.1076 31.9382 12.2688 32.2071C12.43 32.4759 12.81 33.1852 12.9917 33.3923C13.1735 33.5995 15.6582 34.376 15.6582 34.376L16.8414 35.2536L17.4309 36.5374L16.9738 37.2585L16.0932 37.45L14.6608 36.8128L14.2011 36.1925L14.2011 36.1928Z" fill="#D2B159"/>
<path fill-rule="evenodd" clip-rule="evenodd" d="M11.0114 31.7733C11.0114 31.7733 11.3111 32.2495 12.0404 32.6991C12.6968 33.0944 13.7352 33.4524 14.6607 33.6649C15.1924 33.791 15.7242 33.8879 16.2011 33.8941C17.4864 33.9089 18.3701 33.5393 19.4659 33.4164C20.0592 33.353 20.7873 33.3039 21.544 33.1232C22.5155 32.8878 23.0901 32.6241 23.8721 32.2535C24.4392 31.99 24.9596 31.7922 25.3811 31.5399C25.9738 31.1889 26.406 30.7984 26.9083 30.6807C26.8468 30.852 26.782 31.1579 26.2877 31.4759C26.5497 31.4678 26.9102 31.449 26.9102 31.449C26.9102 31.449 26.5612 31.6572 25.947 32.1248C25.569 32.4137 25.0679 32.9024 24.5553 33.2277C24.2244 33.4361 23.8643 33.5894 23.628 33.7143C23.0528 34.0325 22.8208 34.1931 22.4433 34.5812C22.5779 34.5737 22.589 34.5808 22.589 34.5808C22.589 34.5808 22.112 34.6439 21.7705 34.8267C21.6985 34.8269 21.5736 34.8017 21.3554 34.8642C21.1844 34.9191 20.9589 35.0437 20.7262 35.1096C20.395 35.2088 20.286 35.1654 20.286 35.1654L20.3407 35.2745C20.3407 35.2745 19.9087 35.2681 19.7647 35.2831C19.7902 35.2902 19.783 35.3013 19.783 35.3013C19.7577 35.3056 19.7334 35.3143 19.7111 35.3269C19.6419 35.372 19.5657 35.4053 19.4857 35.4256C19.4421 35.4329 19.4056 35.433 19.3509 35.4442C19.3692 35.4878 19.5119 35.7318 19.5778 35.8756C19.5234 35.9122 18.7056 36.5332 18.7056 36.5332C18.7311 36.5732 18.752 36.6159 18.7678 36.6605C18.7934 36.7404 18.8048 36.857 18.8303 36.9114C18.8923 37.0204 18.9288 37.0386 18.9288 37.0386C18.9288 37.0386 18.8307 37.0571 18.6594 37.1012C18.5141 37.138 18.3357 37.2001 18.0838 37.2372C18.0065 37.2475 17.9287 37.2538 17.8508 37.2561C17.8875 37.3361 18.0483 37.6415 17.7542 37.9953C17.4601 38.349 17.3693 38.4006 17.2789 38.6264C17.233 38.5919 17.1842 38.5615 17.133 38.5356C17.0347 38.4922 16.8997 38.4272 16.8522 38.3397C16.8249 38.4565 16.7887 38.571 16.7438 38.6822C16.6535 38.9263 16.5194 39.1671 16.4944 39.3491C16.3958 39.2401 16.2133 39.0258 15.9621 39.0701C15.711 39.1144 15.5117 39.4571 15.4682 39.5556C15.4681 39.4937 15.4243 39.4465 15.4136 39.5193C15.4064 39.5995 15.2702 40.4369 14.5001 41.1161C14.4924 40.945 14.4915 40.5663 14.473 40.4427C14.4011 40.5149 14.3133 40.6214 13.7895 40.8486C13.2767 41.0754 13.3586 41.3011 13.3586 41.3011C13.3586 41.3011 13.314 40.9412 13.5898 40.5613C13.8692 40.1821 14.0399 40.0032 14.0398 39.9741C14.0352 39.9446 14.0225 39.9168 14.0031 39.894C13.9666 39.8577 13.8937 39.8142 13.8937 39.7851C13.9373 39.767 14.37 39.5583 14.3435 39.1286C14.3171 38.7429 14.1529 38.543 14.0359 38.4014C14.0179 38.3832 14.2069 38.2481 14.1811 38.2045C14.1628 38.1791 13.9296 38.0083 13.9001 37.9172C13.9068 37.8627 13.9189 37.8091 13.9362 37.757C13.9614 37.6768 13.9795 37.622 13.9722 37.5676C13.9537 37.4766 13.8547 37.2256 13.8256 37.2002C13.8511 37.2074 14.033 37.1997 14.033 37.1997C14.033 37.1997 13.8869 36.967 13.861 36.8579C13.835 36.7488 13.7799 36.4611 13.7507 36.4067C13.8126 36.4138 13.9655 36.4242 13.9655 36.4062C13.9728 36.3515 13.8305 36.2609 13.8929 36.1904C13.9366 36.1975 14.0205 36.2338 14.1007 36.3356C14.0567 36.219 13.9834 35.9936 13.8301 35.903C13.902 35.8774 14.1466 35.811 14.3618 35.9379C14.5769 36.0649 14.6505 36.243 14.6505 36.243C14.6505 36.243 14.7782 36.3411 14.9754 36.4863C15.2014 36.664 15.4895 36.917 15.9489 37.0954C16.0474 37.1499 16.2984 37.1493 16.4805 37.1123C16.5598 37.0932 16.6357 37.0624 16.7059 37.0208C16.7312 37.0058 16.758 36.9935 16.786 36.9841C16.7466 36.9057 16.7014 36.8303 16.6508 36.7586C16.7127 36.7585 16.7854 36.7657 16.7854 36.7657C16.7854 36.7657 16.8289 36.6672 16.6318 36.4781C16.6754 36.4343 16.73 36.4059 16.7299 36.3322C16.6679 36.3251 16.5585 36.2344 16.533 36.198C16.5691 36.1725 16.6237 36.0886 16.6855 36.063C16.6307 36.0195 16.4956 35.8376 16.4336 35.8198C16.4927 35.7977 16.5499 35.7707 16.6046 35.7392C16.6046 35.7392 16.2986 35.6598 16.2 35.5945C16.1015 35.5228 15.9557 35.3986 15.8683 35.3623C15.777 35.3261 15.6169 35.3084 15.5512 35.2357C15.6129 35.2537 15.7112 35.2353 15.7842 35.2351C15.8387 35.2349 15.8644 35.2421 15.8824 35.242C15.8751 35.2166 15.875 35.1619 16.017 35.1435C16.0853 35.1331 16.1516 35.112 16.2134 35.0811C16.2134 35.0811 16.0785 35.0743 15.925 34.929C15.7716 34.7837 15.6441 34.6676 15.5567 34.6496C15.4657 34.6315 15.2947 34.7121 15.1891 34.7049C15.0434 34.6873 14.9813 34.6145 14.9813 34.6145C14.9813 34.6145 14.4973 34.6594 13.4217 34.0068C12.4918 33.441 12.0864 32.9397 12.0864 32.9397C11.9994 32.9084 11.9153 32.8696 11.835 32.8237C11.4851 32.6426 10.9999 32.2651 11.0133 31.7697L11.0114 31.7733Z" fill="#C2A44D"/>
<path fill-rule="evenodd" clip-rule="evenodd" d="M24.3518 9.88831C24.4361 9.91547 24.5111 9.96576 24.5682 10.0335C24.7398 10.2296 24.8499 10.6006 24.4613 10.9985C24.6144 11.0526 24.6775 11.07 24.8109 11.0521C24.6767 11.2128 24.3718 11.5558 24.3543 11.8544C24.3366 12.0983 24.4897 12.1709 24.4897 12.1709C24.4897 12.1709 24.2573 12.4407 24.2476 12.8915C24.3574 12.7671 24.4775 12.6523 24.6068 12.5483C24.8758 12.3329 25.2464 12.0881 25.4973 11.9346C25.4941 11.9987 25.5029 12.0628 25.5232 12.1237C25.5232 12.1237 25.9917 11.7366 26.3867 11.907C26.5652 11.9867 26.4857 12.2379 26.4857 12.2379C26.4857 12.2379 26.7295 12.1464 26.9011 12.3171C27.0726 12.4878 27.3156 12.9285 27.4401 13.0993C27.4948 13.1794 27.6373 13.3319 27.7833 13.5682C27.9828 13.899 28.1496 14.2485 28.2812 14.6117C28.288 14.4223 28.3345 14.1275 28.874 14.3116C29.4133 14.4997 30.0258 14.8951 30.5411 15.6755C31.0564 16.4559 31.1857 17.3381 31.445 17.6735C31.7079 17.9968 31.9788 18.535 31.9976 18.7607C32.0164 18.9865 31.9198 19.7147 32.4634 21.683C32.6148 21.0711 32.8445 19.7124 32.8445 19.7124L32.969 18.5143L33.1055 14.8076L29.2273 11.6019L26.1965 9.41384L24.2273 9.60806L24.3516 9.88807L24.3518 9.88831Z" fill="#CAA13E"/>
<path fill-rule="evenodd" clip-rule="evenodd" d="M31.5559 15.3862C31.5559 15.3862 31.5003 15.0264 30.5887 14.4166C29.6769 13.8146 28.967 13.8163 28.3105 13.3046C27.807 12.9017 27.2805 11.9744 26.9385 11.6695C26.6063 11.3681 26.5497 10.4944 26.5497 10.4944L27.665 9.55567L29.3213 7.14893L30.7227 5.59819L31.3985 6.53252L32.3372 7.62965L32.8632 9.83468L33.0605 13.0636L31.5542 15.3865L31.5559 15.3862Z" fill="#B59544"/>
<path fill-rule="evenodd" clip-rule="evenodd" d="M32.6906 19.2545C32.717 18.7647 32.6553 18.2741 32.5085 17.806C32.2667 17.0602 31.739 15.7363 31.4942 15.2405C31.3944 14.691 31.4673 14.6471 31.5727 14.5849C31.6781 14.5227 32.0745 14.2957 32.29 13.5019C32.5055 12.7082 33.1801 12.6806 33.1801 12.6806L33.5943 12.3738L34.2282 13.9486L34.7813 15.3709L34.9551 16.4591L35.0848 17.3871L34.7911 19.3503L33.3201 20.6865L32.6904 19.2545L32.6906 19.2545Z" fill="#C89D3A"/>
<path fill-rule="evenodd" clip-rule="evenodd" d="M12.1709 41.1785L12.1708 41.1382C12.2014 41.1189 12.2284 41.0945 12.2505 41.066C12.2759 41.0294 12.2942 40.9857 12.3122 40.9748C12.3487 40.9565 12.5196 40.9023 12.6106 40.9194C12.7016 40.9364 12.9424 41.035 13.0698 41.0275C13.3319 41.0196 13.6371 40.8185 14.1217 40.9085C14.8501 41.0413 15.0225 41.536 15.4456 41.8153C15.7341 42.0114 16.0319 41.923 16.0756 41.9229L16.1738 41.9227C16.192 41.9226 16.3263 41.7694 16.3992 41.7767C16.5449 41.7835 16.5596 41.9037 16.6506 41.9107C16.8655 41.9356 17.2803 41.7999 17.4881 41.8541C17.5497 41.8733 17.6058 41.907 17.6515 41.9525C17.6972 41.998 17.7313 42.0538 17.7508 42.1153C17.7948 42.2499 17.7588 42.4211 17.6534 42.5197C17.4283 42.7277 17.214 42.925 17.1708 43.0969C17.2264 43.1392 17.2799 43.1842 17.3309 43.2319C15.5284 42.7774 13.7935 42.0877 12.1709 41.1806L12.1709 41.1785Z" fill="#CEB052"/>
<path fill-rule="evenodd" clip-rule="evenodd" d="M31.5398 33.8563C31.5398 33.8563 32.1057 33.0977 32.3016 32.7221C32.4972 32.335 31.666 27.441 31.666 27.441L33.2984 22.0451L33.2501 20.2904C33.2501 20.2904 33.3263 18.6699 33.5139 17.9668C33.7407 18.3704 34.4447 18.8565 34.5982 19.1147C34.6689 18.6191 34.9109 17.5738 34.8719 16.4598C35.0071 16.6668 35.3362 18.7523 35.3362 18.7523L35.6637 20.1567L36.0898 21.6485L36.5634 23.2239L36.8464 24.3118L37.0071 24.5735L37.1431 25.0318L37.2718 25.5269L37.6423 26.6873L37.8607 27.6405L38.0361 29.3696C38.0736 29.5019 38.1007 29.6369 38.1172 29.7735C38.1249 29.9629 38.0925 30.0721 38.0926 30.105C38.0927 30.1379 38.1555 30.5198 38.1308 30.8076C38.095 31.0957 38.0956 31.3211 37.8703 31.5283C37.6449 31.7355 37.5061 32.9709 37.5061 32.9709L37.1013 32.7026C37.1013 32.7026 37.1806 32.3345 36.9904 32.0001C36.8002 31.6658 36.4324 31.5974 36.2249 31.6526C36.0176 31.6968 35.6028 31.7631 35.4682 31.8801C35.3411 31.9968 35.029 32.358 34.7417 32.5227C34.3822 32.7395 33.7957 32.758 33.4829 32.8315C33.1663 32.9043 32.8174 33.1212 32.4501 33.3729C32.1621 33.5604 31.8579 33.7217 31.5412 33.8551L31.5398 33.8563Z" fill="#CCA847"/>
<path fill-rule="evenodd" clip-rule="evenodd" d="M31.5594 41.8113C31.5594 41.8113 31.5835 41.8268 31.6299 41.8522C34.2135 40.6339 36.5268 38.9104 38.4334 36.7833C38.4107 36.0466 38.3817 35.2914 38.3512 35.0116C38.2881 34.4183 38.3303 33.8138 38.3112 33.4644C38.2921 33.115 38.092 31.6919 38.0001 31.3244C37.9008 30.957 37.7108 30.7753 37.682 30.7753C37.6565 30.7828 37.5051 31.4677 37.5055 31.6398C37.506 31.8119 37.4705 32.2262 37.4708 32.3318C37.4453 32.3244 37.4344 32.2599 37.4343 32.2335C37.398 32.3245 37.3547 32.485 37.3366 32.5032C37.3184 32.5215 37.3616 32.3503 37.3361 32.3139C37.3106 32.2775 37.264 32.2958 37.2739 32.2048C37.2781 32.1509 37.2864 32.0973 37.2989 32.0447C37.2989 32.0447 37.1901 32.205 37.1112 32.613C37.0321 33.0174 37.0321 33.0284 37.0031 33.0647C36.9778 33.1087 36.8325 33.2545 36.8252 33.3092C36.8182 33.4074 36.9605 33.5055 36.9715 33.5599C36.9789 33.6511 36.8453 34.0736 36.8021 34.2803C36.759 34.4871 36.7782 34.8919 36.7322 35.0996C36.6961 35.2891 36.6609 35.3984 36.5365 35.4786C36.6275 35.4966 36.715 35.5218 36.715 35.5218C36.715 35.5218 36.8437 36.0603 36.5209 36.52C36.4049 36.6804 36.376 36.7534 36.2525 36.8994C36.0091 37.1693 35.8205 37.4764 35.8028 37.6759C35.79 37.6171 35.7814 37.5575 35.7769 37.4974C35.7769 37.4974 35.3995 37.939 35.2398 38.1907C35.0332 38.5152 34.7454 38.4977 34.6647 38.578C34.5841 38.6584 34.5669 38.8039 34.5936 38.9204C34.5216 38.9386 34.3863 38.9646 34.2958 39.2452C34.2525 39.3907 34.1437 39.5335 33.9728 39.6319C33.8019 39.7302 33.5944 39.7603 33.4888 39.786C33.5799 39.8112 33.6163 39.8111 33.6601 39.84C33.6058 39.9311 33.3549 40.0738 33.075 40.2567C32.7951 40.4285 32.6609 40.6798 32.5922 40.8439C32.5205 40.997 32.4145 41.0957 32.2434 41.1143C32.3155 41.1578 32.4223 41.2593 32.4769 41.2921C32.3968 41.3105 32.2609 41.3108 32.0188 41.519C31.7644 41.7309 31.6772 41.793 31.5606 41.8115L31.5594 41.8113Z" fill="#C39D3C"/>
<path fill-rule="evenodd" clip-rule="evenodd" d="M26.4976 43.511C26.6367 43.4129 26.7875 43.3325 26.9465 43.2716C27.5138 43.0446 28.1144 42.9994 28.3509 42.9261C28.5765 42.8535 28.7546 42.7537 29.0348 42.6986C29.0275 42.7624 29.0214 42.8224 29.0148 42.8791C28.189 43.1409 27.348 43.352 26.4964 43.511L26.4976 43.511Z" fill="#D2BA6B"/>
<path fill-rule="evenodd" clip-rule="evenodd" d="M36.9345 28.5493C36.9345 28.5493 36.8196 29.1793 36.613 29.5768C36.4064 29.9743 36.1833 30.5244 36.1833 30.5244C36.1844 30.4006 36.1987 30.2772 36.2261 30.1564C35.9644 30.3099 35.3281 30.6794 35.1478 30.8435C34.9771 30.9968 34.69 31.2671 34.6176 31.3947C34.7875 30.8919 34.9647 30.4401 34.9934 30.2324C34.7318 30.4224 33.5108 31.4339 32.8755 32.1017L30.8951 33.7122C30.6664 33.8363 30.4309 33.9473 30.1896 34.0447C29.848 34.1909 29.4441 34.3158 29.1459 34.4332C29.2255 34.2182 29.3522 34.0282 29.5303 33.8459C29.7192 33.6671 30.2856 33.0503 30.3722 32.7638C30.4516 32.465 30.4694 32.2867 30.3632 32.0357C30.2649 32.0613 30.0393 32.0729 29.8865 32.117C29.7338 32.1611 29.5703 32.3251 29.5703 32.3251C29.5703 32.3251 29.685 31.6586 29.9347 31.0282C29.7454 31.0359 29.4215 31.0912 29.4215 31.0912C29.4215 31.0912 29.8711 30.3329 30.6423 29.8032C30.4059 29.8541 30.1745 29.9265 29.9512 30.0195C29.5002 30.2099 29.0058 30.4915 28.6385 30.6453C28.8452 30.3568 30.2963 28.2748 31.1582 26.3356C32.0174 24.4003 32.339 23.9044 32.5258 22.8664C32.6227 22.3528 32.5946 21.5942 32.6191 20.9147C32.6429 20.241 32.7252 19.6364 32.6697 19.2324C32.896 19.5122 33.7427 20.3002 33.7761 22.066C33.8059 23.8316 32.9783 26.2185 32.0966 27.5057C32.3128 27.5671 32.8726 27.6387 33.4452 26.6384C34.0178 25.6381 34.0101 25.3592 34.2167 24.9435C34.2426 25.151 34.2354 25.2238 34.2354 25.2238C34.2354 25.2238 35.0705 24.206 35.464 22.927C35.5455 23.4767 35.7834 23.9604 35.4144 24.9698C35.0854 25.8807 34.6528 26.104 34.6528 26.104C34.6528 26.104 34.8675 26.067 35.1835 25.8769C35.2386 26.0114 35.2282 26.1648 35.3193 26.2188C35.4104 26.2728 35.5344 26.3639 35.5529 26.4512C35.6507 26.3053 35.8031 26.1192 35.8503 25.9808C35.8145 26.2689 35.7922 27.5282 35.9277 28.1687C36.2082 28.1426 36.4957 28.1236 36.691 27.617C36.5576 28.1127 36.5583 28.411 36.6503 28.8332C36.7993 28.731 36.9335 28.5486 36.9335 28.5486L36.9345 28.5493Z" fill="#C0993A"/>
<path fill-rule="evenodd" clip-rule="evenodd" d="M27.425 8.50466C27.425 8.50466 27.1449 8.62175 26.668 8.62293C26.2531 8.62395 26.3691 8.46358 25.7211 8.46518C24.7237 8.46765 21.2408 9.05225 20.629 9.0456C20.232 9.03938 21.9691 9.21341 21.9691 9.21341L26.4075 9.26437L27.2992 9.19017L27.629 8.51495L27.425 8.50466Z" fill="#A88F33"/>
<path fill-rule="evenodd" clip-rule="evenodd" d="M15.9379 17.209C15.9379 17.209 15.3709 17.6436 15.1315 17.9757C14.8921 18.3077 14.7652 18.5262 14.4927 18.7964C14.5568 18.7986 14.6209 18.7899 14.682 18.7705C14.682 18.7705 14.6822 18.8425 14.6385 18.8615C14.6763 18.8572 14.7145 18.8614 14.7504 18.8738C14.7863 18.8861 14.819 18.9064 14.8461 18.933C14.766 18.9769 14.5482 19.1961 14.7199 19.4541C14.8479 19.6504 15.1174 19.6677 15.1174 19.6677C15.1174 19.6677 15.0559 19.8464 15.3144 19.8275C15.8713 19.8007 16.4933 19.5551 16.781 19.6163C17.0692 19.6876 17.2329 19.7136 17.4375 20.0664C17.6544 20.4153 17.8427 20.4695 17.8427 20.4695C17.8427 20.4695 17.9693 20.145 17.9391 19.661C18.0429 19.3998 18.1002 19.1224 18.1082 18.8414L17.9154 17.4475L17.0865 16.4046L16.0176 17.0008L15.9379 17.2083L15.9379 17.209Z" fill="#E3C571"/>
<path fill-rule="evenodd" clip-rule="evenodd" d="M16.9531 16.9988C16.9531 16.9988 17.0337 17.188 17.3688 17.2051C17.3325 17.2854 17.3325 17.2964 17.3437 17.3581C17.3511 17.42 17.3621 17.5109 17.3621 17.5109C17.399 17.493 17.4322 17.4685 17.4603 17.4387C17.4788 17.5188 17.4426 17.6461 17.4611 17.7372C17.4725 17.7927 17.4909 17.8464 17.5159 17.8972C17.5212 17.8847 17.5273 17.8726 17.5341 17.8609C17.5413 17.8426 17.6066 18.0573 17.7863 18.2203C17.786 18.1951 17.7922 18.1704 17.8041 18.1482C17.807 18.1939 17.8222 18.2379 17.8481 18.2756C17.8347 18.2692 17.8224 18.2606 17.8118 18.2502C17.8118 18.2502 17.8312 18.8262 17.9303 19.1238C17.9467 19.1045 17.9613 19.0837 17.9739 19.0617C17.9738 19.0437 17.9671 19.2221 17.9491 19.3498C17.924 19.4773 17.9427 19.6556 17.9427 19.6556C18.0082 19.6037 18.0802 19.5607 18.1569 19.5276C18.266 19.4834 18.4445 19.3483 18.5527 19.0495C18.6155 18.8803 18.6638 18.706 18.6971 18.5286C18.7325 18.5963 18.757 18.6691 18.7696 18.7444C18.7773 18.8353 18.9483 18.7876 18.9483 18.7876L18.9838 18.3906L19.1976 17.4908L19.3928 16.9333L20.3357 15.4566L22.0427 14.1353L23.5363 14.4738L24.7916 12.7595L22.6186 11.4614L20.5657 11.6813L18.7084 14.2671L17.2217 16.612L16.9531 16.9986L16.9531 16.9988Z" fill="#D8B65B"/>
<path fill-rule="evenodd" clip-rule="evenodd" d="M27.6987 13.237C27.6987 13.237 27.5713 13.2628 27.2041 13.4542C26.8369 13.6457 26.5822 13.7068 26.4408 13.9875C26.2994 14.2681 26.2892 14.4904 26.2892 14.4904C26.2892 14.4904 26.5402 14.3806 26.6858 14.3437C26.8385 14.3071 27.0097 14.3175 26.9916 14.3795C26.9742 14.422 26.95 14.4613 26.9199 14.496C26.9199 14.496 27.2079 14.4881 27.2005 14.6302C27.1932 14.7723 27.1468 14.9289 27.0925 14.9982C27.0379 15.0703 26.8126 15.1774 26.7874 15.2613C26.7259 15.4325 26.8133 15.4395 26.7807 15.5778C26.7556 15.7128 26.6363 15.9752 26.244 16.4348C25.841 16.8946 25.67 17.2191 25.67 17.2191C25.67 17.2191 25.4725 16.8519 25.3697 16.5353C25.2978 16.5717 24.9117 16.7875 24.9117 16.7875L24.0083 13.6697L24.0258 13.4621C24.0258 13.4621 24.1057 13.3637 24.1235 13.1815C23.9888 13.1382 23.9704 13.1017 23.7915 12.9313C23.6125 12.7608 23.4665 12.5534 23.1679 12.412C23.124 12.332 23.069 12.2231 22.8505 12.1798C22.632 12.1364 22.5008 12.1007 22.5008 12.1007C22.5008 12.1007 22.6171 12.0565 22.6716 11.9654C22.5368 11.984 22.4279 12.0279 22.133 12.0215C21.8344 12.0148 21.8015 12.004 21.6379 12.0299C21.4742 12.0557 21.2781 12.1292 21.2043 11.8781C21.124 11.8163 20.953 11.8715 20.8078 12.0864C20.6627 12.3013 20.6122 12.4728 20.3321 12.5573C20.3127 12.6809 20.2697 12.7996 20.2055 12.907C20.1257 13.0421 19.9986 13.1771 19.828 13.3776C19.5592 13.6951 19.6042 14.2155 19.1756 14.6136C18.7434 15.0114 19.2449 13.5137 19.2449 13.5137L19.9325 11.856L21.8974 9.92515L24.9552 9.71024L25.2577 11.2935L26.7517 11.8032L27.6982 13.2389L27.6987 13.237Z" fill="#D3AE4D"/>
<path fill-rule="evenodd" clip-rule="evenodd" d="M28.1839 13.5852L26.8941 11.7354L25.9931 11.0457C25.9931 11.0457 25.3494 9.86791 25.3056 9.83154C25.2691 9.80619 24.6646 9.74216 24.2786 9.71768L24.3511 9.89582C24.4353 9.92297 24.5103 9.97326 24.5674 10.041C24.739 10.2371 24.8491 10.6081 24.4606 11.006C24.6136 11.0601 24.6768 11.0775 24.8102 11.0596C24.6759 11.2203 24.371 11.5633 24.3535 11.8619C24.3359 12.1058 24.4889 12.1781 24.4889 12.1781C24.4889 12.1781 24.2566 12.4482 24.2469 12.8987C24.3566 12.7743 24.4768 12.6596 24.606 12.5556C24.875 12.3389 25.2457 12.0951 25.4966 11.9416C25.4933 12.0058 25.5021 12.07 25.5225 12.1309C25.5225 12.1309 25.991 11.7439 26.386 11.914C26.5645 11.9937 26.4849 12.2452 26.4849 12.2452C26.4849 12.2452 26.7288 12.1536 26.9003 12.3243C27.0719 12.495 27.3168 12.9348 27.4411 13.1059C27.4957 13.1859 27.6382 13.3384 27.7842 13.5745C27.9838 13.9053 28.1506 14.2549 28.2822 14.6182C28.289 14.4725 28.3178 14.2687 28.5693 14.2681L28.1853 13.5845L28.1839 13.5852Z" fill="#CAA13E"/>
<path fill-rule="evenodd" clip-rule="evenodd" d="M8.93006 18.8974C8.93006 18.8974 8.83854 18.6718 8.92842 18.2312C9.01829 17.7906 9.15986 17.5826 9.20554 16.9345C9.25122 16.2864 9.67162 15.477 9.67162 15.477L10.8389 14.9428L11.666 15.1664L11.9126 16.2726L10.869 16.8512C10.869 16.8512 10.8151 17.0952 10.5207 17.2925C10.2262 17.4898 9.81881 17.6436 9.72114 17.8443C9.66277 17.9671 9.62026 18.0969 9.59466 18.2305C9.59466 18.2305 9.29595 18.1693 9.11811 18.3663C8.92925 18.5672 8.93689 18.7455 8.93006 18.8984L8.93006 18.8974Z" fill="#F4EFC8"/>
<path fill-rule="evenodd" clip-rule="evenodd" d="M11.2886 18.5966C11.2886 18.5966 11.1903 18.6588 11.118 18.8131C11.0457 18.6968 10.8719 18.0053 10.8632 17.3828C10.8545 16.7603 10.8169 16.606 10.9603 16.3911C11.1038 16.1762 11.668 15.9487 11.5869 15.5625C11.5058 15.195 11.1704 15.043 10.7593 15.1496C10.4715 15.2223 10.2587 15.8353 9.96085 16.1418C9.73558 16.3754 9.46621 16.3396 9.39381 16.4672C9.29583 16.6386 9.38721 16.8095 9.35844 16.9188C9.35109 16.9553 9.26062 17.152 9.09728 17.3891C8.76726 17.8668 8.20829 18.5418 8.13682 19.1463C8.16141 18.804 8.1434 18.7969 8.23342 18.4179L8.17848 18.3271L8.53556 17.1466L8.7662 16.1741L9.28298 14.5451L10.1962 12.8792L11.0858 11.8793L12.0142 11.9389L12.1269 13.333L12.6649 15.9496L13.786 17.323L11.9976 18.533L11.2879 18.5966L11.2886 18.5966Z" fill="#EBCC73"/>
<path fill-rule="evenodd" clip-rule="evenodd" d="M11.8468 19.0898C11.8468 19.0898 11.694 19.1267 11.6392 19.0978C11.5844 19.0689 11.5301 19.0361 11.548 18.9996C11.5659 18.9631 11.6641 18.9012 11.6641 18.8719C11.666 18.8454 11.6576 18.8192 11.6406 18.7989C11.6235 18.7785 11.5992 18.7656 11.5728 18.7629C11.489 18.7523 11.4637 18.8068 11.4637 18.8068C11.4637 18.8068 11.3834 18.7454 11.3181 18.7352C11.3567 18.7304 11.3956 18.7278 11.4345 18.7275C11.3338 18.6822 11.227 18.6518 11.1175 18.6373C11.2083 18.5826 11.3865 18.4218 11.5029 18.4215C11.6193 18.4213 11.6922 18.4031 11.6738 18.3412C11.6554 18.2793 11.5642 18.1886 11.466 18.1524C11.5021 18.1086 11.5276 18.043 11.4398 17.8644C11.3482 17.6863 11.3844 17.566 11.4135 17.5225C11.4388 17.4677 11.5296 17.3693 11.5731 17.3073C11.6166 17.2453 11.6529 17.1614 11.7255 17.1176C11.7619 17.092 11.8782 17.0452 11.9947 17.0005C12.1221 16.9565 12.2275 16.9015 12.3004 16.9561C12.3807 17.0103 12.3444 17.0834 12.3444 17.0834C12.3444 17.0834 12.5954 16.9916 12.8213 17.1077C13.0474 17.2161 13.5974 17.2841 13.5974 17.2841L13.7954 17.6805L12.4948 18.8014L11.9566 19.0723L11.8475 19.0905L11.8468 19.0898Z" fill="#E5C66B"/>
<path fill-rule="evenodd" clip-rule="evenodd" d="M13.6515 17.2584C13.6515 17.2584 13.248 17.5289 13.1573 17.6273C13.2118 17.6346 13.3029 17.6708 13.2665 17.7254C13.223 17.78 12.9614 17.97 12.8161 18.1489C12.6637 18.3276 12.5186 18.5538 12.468 18.6631C12.4137 18.7614 11.9992 19.0502 11.8575 19.0868C12.1561 19.0861 12.7559 18.7169 12.9815 18.7163C12.9745 18.8255 13.044 18.9492 13.1714 18.9597C13.2989 18.9702 13.6667 19.0386 14.1611 18.7317C14.6555 18.4319 14.4913 18.21 14.6983 18.0641C15.0946 17.8008 15.2541 17.5674 15.4721 17.4214C15.6902 17.2754 15.8031 17.242 15.8031 17.242C15.8031 17.242 15.81 17.1328 15.8749 17.1437C15.8926 17.1457 15.9095 17.1525 15.9236 17.1633C15.9378 17.1742 15.9487 17.1888 15.9552 17.2054C15.9552 17.2054 16.3332 16.9349 16.8183 16.861C16.807 16.856 16.7979 16.8469 16.7928 16.8356C16.7928 16.8356 16.829 16.8173 16.8364 16.799C16.8364 16.799 16.8618 16.7625 16.8801 16.7807C16.8983 16.7989 16.9241 16.9335 16.9607 16.9881C17.0408 16.9514 17.1928 16.6088 17.1928 16.6088L17.5582 15.5557L17.5558 14.5945L17.2679 14.65L15.1102 15.5726L13.8027 16.934L13.6506 17.2584L13.6515 17.2584Z" fill="#E6BD62"/>
<path fill-rule="evenodd" clip-rule="evenodd" d="M19.8583 12.5281C19.975 12.4995 20.0869 12.4538 20.1903 12.3924C20.1469 12.5092 20.1472 12.6366 19.9586 12.9138C19.7699 13.191 19.7628 13.2311 19.6106 13.519C19.4585 13.8179 19.4413 14.2476 19.2961 14.4371C19.3613 14.4052 19.4313 14.3842 19.5033 14.3749C19.5033 14.3749 19.3582 14.5027 19.2966 14.6375C19.235 14.7722 19.1265 15.0528 18.8576 15.2249C18.5888 15.3969 18.2466 15.5067 17.8799 15.9118C17.5129 16.3094 17.1357 16.8129 16.9465 16.9941C17.0445 16.8227 17.1783 16.4801 17.2142 16.2544C17.2502 16.0288 17.2056 15.7591 17.2668 15.4606C17.3279 15.1622 17.3274 14.9471 17.6242 14.4256C17.921 13.904 18.4268 12.0934 18.4268 12.0934L19.5253 11.7413L19.8587 12.5269L19.8583 12.5281Z" fill="#B6933F"/>
<path fill-rule="evenodd" clip-rule="evenodd" d="M19.0629 11.8639C19.0629 11.8639 18.7329 12.3416 18.643 12.7642C18.5531 13.1869 18.6365 13.1502 18.5825 13.3579C18.5502 13.4846 18.5506 13.6173 18.5835 13.7438C18.6977 13.5588 18.8544 13.4035 19.0405 13.291C19.3532 13.1011 19.6078 12.9656 19.7593 12.8052C19.9118 12.6337 20.0385 12.353 20.3692 12.1374C20.2345 12.1195 20.045 12.0581 20.009 12.0663C20.1435 11.9131 20.5469 11.6791 20.9539 11.3977C21.3574 11.1087 21.3316 10.9926 21.9864 10.7035C21.7717 10.7405 21.6695 10.686 21.491 10.7047C21.5626 10.5517 21.8145 10.4781 22.0658 10.2264C22.3172 9.97477 21.9042 9.60426 21.9042 9.60426L19.9871 10.7704L19.0615 11.8649L19.0629 11.8639Z" fill="#C49937"/>
<path fill-rule="evenodd" clip-rule="evenodd" d="M13.851 11.0102L13.8938 10.6606L14.4414 9.77822L15.0129 8.22952L15.0077 6.11417L14.961 4.891L15.05 4.08966L15.1184 3.83485L15.1912 3.73627L15.6612 3.97895L16.3116 4.85839L16.3777 6.55863L15.7544 9.24338L13.9607 11.2103L13.851 11.0102Z" fill="#DFC068"/>
<path fill-rule="evenodd" clip-rule="evenodd" d="M15.2638 3.63762C15.2638 3.63762 14.9758 3.64577 14.9173 4.84375C14.8588 6.04174 14.8306 6.67157 14.7884 7.2652C14.7462 7.85883 14.6453 8.21932 14.5951 8.56912C14.5448 8.91893 14.5169 9.39564 14.354 9.6874C14.2823 9.82222 14.1295 10.245 13.7698 10.5627C13.3665 10.9131 12.7633 11.1587 12.6719 11.1772C12.5117 11.2138 11.6999 11.296 11.3692 11.4789C11.2529 11.5411 11.0527 11.6144 10.8312 11.8225C10.3916 12.2203 9.80725 12.9317 9.38696 13.7883C8.74212 15.0679 8.10303 18.6774 8.10303 18.6774L8.24811 18.4332C8.24811 18.4332 8.26555 18.1092 8.58814 17.5403C8.90354 16.9717 8.81101 16.3347 9.24872 15.245C9.41881 14.8296 9.63228 14.2903 9.89323 13.8307C10.3066 13.0833 10.8073 12.4413 11.3126 12.0906C12.1375 11.5207 13.0475 11.3946 13.0475 11.3946L14.0254 10.7442C14.0254 10.7442 14.1957 10.4126 14.4206 10.0333C14.7358 9.50118 15.1378 8.90666 15.2238 8.04365C15.3555 6.76532 15.0292 5.92876 15.0455 5.17152C15.0619 4.41428 15.0677 3.85722 15.2205 3.72196C15.3733 3.58671 15.264 3.63809 15.264 3.63809L15.2638 3.63762Z" fill="#A88F33"/>
<path fill-rule="evenodd" clip-rule="evenodd" d="M15.2777 9.3537C15.2777 9.3537 15.707 8.28943 15.9025 7.34599C15.9385 7.15654 16.0107 6.96724 16.0286 6.81431C16.1174 5.92201 16.1419 5.55427 16.0243 5.06664C15.9324 4.70687 15.5822 4.38325 15.3994 4.13218C15.2204 3.8703 15.1364 3.77283 15.1728 3.71754C15.2091 3.66225 15.3508 3.57166 15.489 3.58212C15.636 3.58603 15.7806 3.61979 15.9141 3.68135C16.0476 3.74291 16.1672 3.83098 16.2656 3.9402C16.5467 4.26351 16.7714 5.36264 16.7714 5.36264L17.0085 6.8131L17.6065 8.63922L15.2781 9.35513L15.2777 9.3537Z" fill="#C99E3D"/>
<path fill-rule="evenodd" clip-rule="evenodd" d="M19.3344 8.23699C19.3344 8.23699 19.2544 8.27343 19.1088 8.23755C19.1152 8.29697 19.105 8.35699 19.0794 8.411C19.0539 8.46501 19.0139 8.51091 18.9639 8.54366C18.8109 8.48212 17.3801 8.6095 17.3801 8.6095C17.3801 8.6095 16.7135 8.4945 16.5038 7.61398C16.3569 7.02802 16.6095 6.21931 16.5245 5.68792C16.3951 4.90536 16.2164 4.75268 16.1975 4.50912C16.1787 4.26557 16.1603 4.20345 16.1599 4.05057C16.0797 4.03253 16.0324 4.00721 15.9525 4.00741C15.934 3.93545 15.9701 3.87248 15.8899 3.74524C15.9336 3.76337 16.2323 3.79911 16.5825 4.12945C16.8712 4.39826 16.8714 4.49642 16.915 4.55103C16.9696 4.60538 17.4112 4.98181 17.6015 5.35766C17.7918 5.73351 18.1624 6.9326 18.2467 7.12895C18.2723 7.20905 18.3272 7.28907 18.4635 7.47066C18.6753 7.73245 18.9858 8.16537 19.3354 8.23651L19.3344 8.23699Z" fill="#B58634"/>
<path fill-rule="evenodd" clip-rule="evenodd" d="M16.9663 4.56921C17.1877 4.92495 17.3868 5.29414 17.5623 5.67463C17.7783 6.15817 17.9067 6.55482 18.1771 6.87815C18.0303 6.45635 17.7698 5.62683 17.6162 5.33225C17.4443 5.02068 17.094 4.68554 16.9663 4.56945L16.9663 4.56921Z" fill="#A88F33"/>
<path fill-rule="evenodd" clip-rule="evenodd" d="M14.5052 10.5609C14.5052 10.5609 14.1377 10.6527 13.4541 11.0149C13.2286 11.1318 13.0143 11.2305 12.8069 11.3222C12.2682 11.5674 11.6904 11.7942 11.2318 11.9197C11.2684 11.9632 11.2864 11.9812 11.2864 11.9812C11.2864 11.9812 11.2869 12.1598 11.3855 12.2613C11.3312 12.3161 10.604 12.813 10.8231 14.469C10.9685 14.4142 11.1394 14.3408 11.1648 14.3407C11.2088 14.348 11.2199 14.468 11.2743 14.4679C11.3288 14.4677 11.5072 14.3953 11.696 14.15C11.689 14.2485 11.5823 15.239 12.17 15.9038C12.2789 15.776 12.5545 15.353 12.5545 15.353L12.5614 15.2183C12.5614 15.2183 12.5857 14.7486 12.7377 14.3186C12.8898 13.8886 13.1873 13.5711 13.1873 13.5711L14.7397 11.3427L14.5047 10.5606L14.5052 10.5609Z" fill="#E6C367"/>
<path fill-rule="evenodd" clip-rule="evenodd" d="M13.057 13.831C12.9858 13.8815 12.9073 13.921 12.8242 13.9479C12.7985 13.857 12.7613 13.5439 12.9753 13.2376C13.2257 12.8691 13.7741 12.3909 13.9261 12.0113C14.0239 11.767 13.9787 11.1556 14.8506 10.3705C15.7225 9.58549 16.0638 9.31537 16.0638 9.31537L17.4747 8.60196L19.213 9.28215L18.3586 12.6659L17.6927 14.2515L15.0274 13.7558L13.0567 13.831L13.057 13.831Z" fill="#DCBA5A"/>
<path fill-rule="evenodd" clip-rule="evenodd" d="M14.0717 12.9101L14.4021 12.4943L14.4014 12.1994C14.4014 12.1994 14.7688 12.1 15.1646 11.6949C15.5603 11.2898 16.1082 10.513 16.5926 10.5591C17.0771 10.6126 17.1268 11.6099 17.1458 11.8904C17.1647 12.1709 17.2282 12.8075 17.3272 13.1497C17.4372 13.4917 16.1516 14.7909 16.1516 14.7909L15.278 15.4593L14.0717 12.9101Z" fill="#E9CE77"/>
<path fill-rule="evenodd" clip-rule="evenodd" d="M15.1058 16.3627C15.1058 16.3627 15.3743 15.9396 15.1766 15.8491C15.2923 15.5868 15.5064 15.3095 15.5064 15.3095C15.5064 15.3095 15.6584 14.9307 16.1523 14.4634C16.6463 13.9961 16.9515 13.6857 17.0309 13.3725C17.0798 13.1685 17.1062 12.9596 17.1096 12.7498C17.1632 12.7934 17.2205 12.8322 17.281 12.8658C17.3612 12.9021 17.7405 13.2141 17.6875 13.8442C17.6346 14.4743 17.4017 14.737 17.4017 14.737C17.4017 14.737 17.1767 14.9632 17.0169 15.0802C16.8458 15.197 16.7845 15.3318 16.4968 15.3436C16.5263 15.32 16.5595 15.3014 16.595 15.2886C16.595 15.2886 16.2964 15.2531 16.1364 15.3989C15.9765 15.5448 15.6368 15.9937 15.466 16.129C15.2951 16.2386 15.1066 16.3629 15.1066 16.3629L15.1058 16.3627Z" fill="#CDAE50"/>
<path fill-rule="evenodd" clip-rule="evenodd" d="M27.1938 9.25136C26.7633 9.09566 26.3111 9.00834 25.8535 8.99259C25.0888 8.96904 23.9712 9.01547 22.8754 9.02538C21.6958 9.03549 20.6244 8.62678 19.1389 8.55772C18.8947 8.41265 18.273 7.77698 16.3405 9.13247C16.4568 9.12499 17.7452 8.83045 18.1941 9.39022C18.647 9.94614 18.5219 10.893 18.4607 11.1188C18.3453 11.6216 17.9684 12.3543 17.8171 12.868C17.6657 13.3818 17.7023 13.6514 17.594 14.0117C17.4857 14.372 17.2459 14.5514 17.3888 14.966C17.5779 14.8491 17.6765 14.8489 17.9911 14.1382C18.3056 13.4275 18.2393 12.9215 18.7623 12.3195C19.2741 11.7139 20.1267 10.8852 20.4512 10.6768C20.7756 10.4684 23.3525 9.12236 26.0574 10.3937C26.7088 10.323 27.1941 9.25112 27.1941 9.25112L27.1938 9.25136Z" fill="#D2A83E"/>
<path fill-rule="evenodd" clip-rule="evenodd" d="M17.428 8.78011C17.4253 8.75276 17.4192 8.72585 17.4098 8.69999C17.3845 8.64681 17.3512 8.59778 17.3111 8.55456C17.3111 8.55456 16.67 8.43974 16.3461 8.47678C15.7782 8.5401 15.2665 9.24409 15.0272 9.60516C14.7878 9.96623 14.4907 10.5238 14.1674 10.8123C14.1709 10.7843 14.1643 10.7559 14.1489 10.7322C14.1489 10.7322 14.1672 10.7576 14.1311 10.7942C14.0949 10.8307 14.0947 10.8487 14.113 10.8662L14.1679 10.9206C14.1859 10.9205 14.6879 10.6934 15.3708 10.0536C16.0973 9.38556 16.6535 9.04242 16.9446 8.92458C17.0998 8.85817 17.2621 8.8097 17.4283 8.78011L17.428 8.78011Z" fill="#C29637"/>
<path fill-rule="evenodd" clip-rule="evenodd" d="M29.851 6.01201C29.851 6.01201 29.7348 6.15774 29.5895 6.31842C29.2663 6.66146 28.8449 7.04818 28.4854 7.44603C28.1443 7.82559 27.7591 8.1215 27.3269 8.61769C26.8947 9.11388 26.3935 9.66472 26.2667 9.82535C26.1507 9.98596 26.0604 10.2483 26.0607 10.3829C25.9987 10.3394 25.9258 10.2923 25.9258 10.2923C25.9566 10.3494 25.9933 10.403 26.0354 10.4523C26.1267 10.5795 26.2689 10.7397 26.3421 10.8375C26.432 10.9619 26.4965 11.1027 26.5323 11.252C26.576 11.2591 26.8564 11.3131 27.2047 10.737C27.5529 10.1608 28.0098 9.52993 28.0098 9.52993L28.7353 8.44669L29.1919 7.52828L29.7654 6.50014L29.8518 6.01201L29.851 6.01201Z" fill="#AC8132"/>
<path fill-rule="evenodd" clip-rule="evenodd" d="M30.5955 5.27478C30.5955 5.27478 30.1557 5.63586 29.9851 5.85229C29.8145 6.06871 29.4111 6.63659 29.4111 6.63659L29.5567 6.61799L30.2943 5.96096L30.581 5.44689L30.5952 5.27574L30.5955 5.27478Z" fill="#A88F33"/>
<path fill-rule="evenodd" clip-rule="evenodd" d="M30.5321 34.2082C30.5321 34.2082 30.5242 33.9096 30.6912 33.7309C30.8619 33.5519 31.2945 33.2888 31.7144 32.3047C32.1344 31.3206 32.1809 31.0985 32.1809 31.0985C32.1809 31.0985 31.4253 31.7484 30.9589 31.9024C31.0675 31.6763 31.129 31.5161 31.1835 31.3993C31.1214 31.345 30.8592 31.2837 30.8337 31.2547C30.9788 31.1087 31.058 30.7516 31.3524 30.5142C31.7304 30.2253 32.4209 29.7287 32.9574 29.2863C33.4939 28.8438 34.5483 27.8152 34.6825 27.5163C34.7629 27.6325 34.7811 27.7052 34.7811 27.7052C34.7811 27.7052 34.2514 28.3984 33.9758 28.8395C33.7327 29.2188 33.7514 29.4336 33.7514 29.4336L34.2535 29.2163C34.2535 29.2163 34.4002 29.7548 33.7434 30.5758C34.0312 30.4659 34.1475 30.5311 34.311 30.4395C34.0419 30.6115 33.6712 30.8455 33.3233 31.4869C32.9826 32.1285 32.5184 32.8761 31.7333 33.3439C30.9699 33.8373 30.5302 34.206 30.5302 34.206L30.5321 34.2082Z" fill="#A67A2E"/>
<path fill-rule="evenodd" clip-rule="evenodd" d="M28.4983 9.62702C28.4983 9.62702 28.2012 10.2501 28.1588 10.7345C28.1518 10.8512 28.1228 10.9422 28.1231 11.0768C28.117 11.51 28.1508 11.9943 28.0539 12.2201C28.0172 12.1293 27.9988 12.0674 27.9623 12.0312C27.9082 12.1842 27.8109 12.6614 27.7312 12.8399C27.6947 12.7236 27.6135 12.3196 27.6198 11.8427C27.6261 11.3658 27.6364 11.2746 27.6362 11.1764C27.6185 11.3219 27.5206 11.519 27.4844 11.6354C27.4297 11.5374 27.3675 11.4101 27.2942 11.3047C27.2507 11.3768 27.1965 11.4833 27.1494 11.5381C27.1418 11.4945 27.1235 11.3779 27.1121 11.2142C27.1044 11.0249 27.0928 10.7811 27.1037 10.7299C27.1215 10.6317 27.2736 10.2454 27.5967 9.89132C27.9816 9.46797 28.3766 8.65531 28.4924 8.40375C28.6081 8.15218 29.1007 7.10624 29.1007 7.10624L29.4794 7.10531L28.9327 8.35898C28.9327 8.35898 28.6031 9.04428 28.4326 9.29622C28.2621 9.54816 27.9034 10.2698 27.7438 10.5505C27.8598 10.3973 27.958 10.3169 28.0743 10.1709C28.1869 10.0687 28.4987 9.6275 28.4987 9.6275L28.4983 9.62702Z" fill="#8C6228"/>
<path fill-rule="evenodd" clip-rule="evenodd" d="M30.6026 5.22728C30.5412 5.41783 30.4438 5.59486 30.3159 5.74879C30.0907 6.01887 29.6072 6.3803 29.3716 6.6684C29.1563 6.94926 28.7261 7.71496 28.9247 8.62095C28.9962 8.42422 29.1309 8.03436 29.4902 7.59283C29.8496 7.15131 30.2343 6.64444 30.4229 6.25085C30.6111 5.85342 30.6357 5.5404 30.6357 5.5404L30.7075 5.44926L30.6633 5.24177L30.6014 5.22728L30.6026 5.22728Z" fill="#CBA94C"/>
<path fill-rule="evenodd" clip-rule="evenodd" d="M38.0348 29.3583C38.0348 29.3583 37.8882 28.9619 37.8436 28.6015C37.799 28.2412 37.9145 28.1694 37.7796 27.7571C37.6988 27.506 37.5535 27.5417 37.5169 27.5065C37.4803 27.4713 37.4539 27.0917 37.4606 26.8841C37.4673 26.6764 37.4523 26.4072 37.4155 26.2907C37.3609 26.2471 37.3243 26.2107 37.2435 25.9416C37.1519 25.6723 37.1079 25.5378 37.064 25.458C37.0201 25.3782 36.8923 25.3055 36.8921 25.2254C36.8917 25.0651 37.0371 24.9812 37.037 24.937C37.0296 24.8461 36.9206 24.9193 36.8912 24.8937C36.8549 24.8501 36.9817 24.5877 36.9343 24.5514C36.916 24.5334 36.789 24.6866 36.756 24.643C36.7194 24.5992 36.6746 24.1661 36.6084 23.8787C36.546 23.5986 36.4798 23.395 36.4724 23.3112C36.465 23.2311 35.9661 21.8197 35.8453 21.4777C35.7479 21.1888 35.6657 20.8949 35.5993 20.5973C35.5624 20.4263 35.5361 20.0766 35.5179 20.1132C35.4998 20.1497 35.5112 20.328 35.4819 20.3208C35.4565 20.3135 35.364 19.6914 35.3347 19.5931C35.309 19.4947 35.1551 19.1615 35.117 18.9201C35.08 18.6762 34.9985 18.0392 34.9427 17.6061C34.8869 17.173 34.861 16.9948 34.8607 16.8863C34.869 16.6209 34.8538 16.3554 34.8151 16.0927C34.742 15.634 34.5966 15.0773 34.4696 14.7539C34.2242 14.1427 33.5721 12.5788 33.4552 12.1896C33.455 12.0912 33.5826 12.1456 33.5826 12.1456C33.5826 12.1456 33.9011 12.9385 34.1356 13.5494C34.363 14.1606 34.5791 14.6989 34.634 14.7535C34.6778 14.8079 35.0215 15.4077 35.1768 16.3904C35.3321 17.3731 35.3888 18.2794 35.4815 18.8835C35.5259 19.1714 35.5631 19.4768 35.6549 19.7823C35.7538 20.1135 35.9076 20.4554 36.1093 20.9791C36.2815 21.4193 36.4098 21.7866 36.4797 22.1033C36.5609 22.5072 36.5616 22.813 36.6094 23.0133C36.6537 23.1843 36.7199 23.5261 36.8742 24.0206C37.0285 24.5151 37.2555 25.152 37.4093 25.5483C37.7101 26.3413 37.8449 27.0036 37.8909 27.3568C37.9317 27.7207 38.0697 28.9802 38.0341 29.3587L38.0348 29.3583Z" fill="#A88F33"/>
<path fill-rule="evenodd" clip-rule="evenodd" d="M30.6209 5.18354L30.6027 5.22726C30.6027 5.22726 30.6573 5.24537 30.6466 5.31835C30.6477 5.41817 30.6418 5.51794 30.6291 5.61696C30.6114 5.74444 30.5752 5.84269 30.5682 5.92287C30.5686 6.09399 30.5946 6.29048 30.3543 6.779C30.2827 6.91382 30.2385 7.03032 30.2023 7.11057C30.1118 7.30736 30.0936 7.33668 30.0137 7.42784C30.1409 7.35553 30.5991 7.06639 30.832 7.10902C30.6722 7.20037 30.4285 7.37954 30.2762 7.61295C30.3127 7.62006 30.4657 7.64897 30.7082 7.61189C31.1122 7.54897 31.5633 7.40218 31.9601 7.43024C32.3936 7.45461 32.2211 6.90903 32.2211 6.90903L31.7183 5.81083L30.7701 5.14717L30.6209 5.18377L30.6209 5.18354Z" fill="#BE9C44"/>
<path fill-rule="evenodd" clip-rule="evenodd" d="M33.1095 13.413C33.1095 13.413 32.686 12.9916 32.5113 11.5425C32.3366 10.0866 32.3678 7.9428 32.3678 7.9428L32.0235 7.10629C32.0235 7.10629 31.9501 6.54942 31.7703 6.34251C31.5905 6.13559 31.2376 5.78678 31.0768 5.61606C30.9161 5.44533 30.7336 5.21274 30.6243 5.17653C30.6786 5.08544 30.9214 4.57148 31.8569 4.56197C32.7924 4.55246 33.0821 5.07231 33.1803 5.26142C33.2784 5.45054 33.7216 6.26809 33.8891 7.82768C34.0458 9.38538 34.0536 9.502 34.0295 10.0409C34.0119 10.3395 33.9153 11.0314 33.7457 11.7708C33.5908 12.3976 33.4214 13.0971 33.109 13.4144L33.1095 13.413Z" fill="#A17C34"/>
<path fill-rule="evenodd" clip-rule="evenodd" d="M31.788 14.6578C31.9288 14.6676 32.0693 14.6355 32.1919 14.5656C32.3265 14.558 32.8146 14.6187 33.1883 14.1409C33.214 14.2498 33.2805 14.5449 33.1098 14.8074C33.2008 14.7159 33.3353 14.6794 33.3535 14.6539C33.361 14.7885 33.4895 15.2032 32.9532 16.213C33.0982 16.0525 33.2694 16.0593 33.4222 16.0407C33.4301 16.23 33.5334 16.8667 33.265 17.2099C33.0873 17.4434 32.7957 17.3711 32.7957 17.3711C32.7998 17.3202 32.7997 17.2691 32.7953 17.2182C32.7879 17.1198 32.7512 17.0218 32.7767 16.9562C32.6357 16.8922 32.5073 16.8037 32.3973 16.6948C32.0798 16.397 31.6672 15.8885 31.6372 15.5099C31.5997 15.0876 31.9782 14.9957 31.9782 14.9957C31.9464 14.9674 31.9192 14.9342 31.8978 14.8975C31.8794 14.8358 31.8609 14.7375 31.788 14.6578Z" fill="#8C6228"/>
<path fill-rule="evenodd" clip-rule="evenodd" d="M28.9687 10.0846C28.9687 10.0846 28.9504 10.0592 28.8525 10.1758C28.8705 10.0594 28.8885 9.94992 28.8954 9.8443C28.9416 9.74642 29.0015 9.65561 29.0733 9.57458C29.0188 9.68368 28.9826 9.78217 28.9826 9.78217C28.9826 9.78217 29.1169 9.53055 29.3131 9.37719C29.4474 9.26766 29.6184 9.21636 29.6909 9.11418C29.7708 9.00478 29.7525 8.98658 29.7707 8.9683C29.7707 8.9683 29.949 8.85146 30.2212 8.5083C30.2574 8.46454 30.312 8.41712 30.3483 8.37335C30.41 8.34776 30.5555 8.28188 30.7264 8.19386C30.9047 8.09526 31.1045 7.96012 31.2282 7.90462C31.4718 7.79482 31.7305 7.80522 31.8501 7.63356C31.941 7.6079 32.0385 7.33454 32.0199 7.10178C32.1547 7.15593 32.8474 7.58382 33.0866 8.52259C33.2594 9.18841 32.9559 10.2159 32.8297 10.7116C32.7035 11.2072 32.6864 11.5747 32.5084 11.8007C32.2833 12.1001 31.5564 12.5231 31.3784 12.7321C31.2259 12.9036 30.7684 13.3379 30.7871 13.6508C30.8059 13.8838 31.0938 14.0101 31.156 14.0541C31.2183 14.0981 31.218 14.1523 31.3345 14.1257C31.4511 14.099 31.4944 14.0451 31.5419 14.045C31.5964 14.052 31.5965 14.0631 31.6219 14.063C31.6404 14.0624 31.6587 14.0599 31.6766 14.0554C31.6766 14.0554 31.6592 14.3869 30.884 14.4894C30.8293 14.497 30.7749 14.5151 30.7055 14.5263C30.7966 14.4824 30.8511 14.4823 30.9492 14.3474C30.8399 14.3294 30.5267 14.312 30.4465 14.2867C30.4718 14.243 30.5553 14.1261 30.6242 14.0715C30.686 14.0169 30.6169 13.9995 30.5625 14.028C30.4688 14.092 30.379 14.1615 30.2934 14.236C30.2027 14.3164 30.1228 14.4258 29.9774 14.5248C29.9333 14.3792 29.9398 14.1025 30.1107 13.9019C30.0668 13.9092 29.9834 14.0368 29.9034 14.0116C29.8886 13.8788 29.8969 13.7445 29.9278 13.6146C29.9711 13.4505 30.207 13.1624 30.207 13.1624L31.3451 11.117L31.5851 9.5691L28.9687 10.0841L28.9687 10.0846Z" fill="#92723A"/>
<path fill-rule="evenodd" clip-rule="evenodd" d="M28.9071 10.1721C28.9071 10.1721 28.8453 10.216 28.9694 10.2994C28.9512 10.3249 28.9077 10.416 28.8532 10.478C28.7917 10.5502 28.726 10.595 28.7007 10.657C28.6466 10.7845 28.6031 10.872 28.6032 10.9267C28.6034 10.9815 28.586 11.3309 28.4337 11.5569C28.3792 11.6372 28.3176 11.772 28.2741 11.8631C28.1836 12.0234 28.1037 12.1515 28.0856 12.2235C28.0497 12.3511 28.0251 12.7006 28.0251 12.7006C28.0251 12.7006 28.1051 12.602 28.134 12.5657C28.0903 12.6567 28.0433 12.755 27.9743 12.8281C28.0179 12.7915 28.1451 12.7003 28.3595 12.5104C28.6574 12.2586 29.1225 11.8351 29.6897 11.4991C29.5185 11.5614 29.3731 11.5618 29.2567 11.5803C29.3474 11.4891 30.1642 10.5259 30.5936 10.4339C30.6196 10.4008 30.6324 10.3592 30.6297 10.3172L30.2617 10.2818L29.5157 10.4438L29.4054 9.86803L28.9071 10.1714L28.9071 10.1721Z" fill="#B18E3E"/>
<path fill-rule="evenodd" clip-rule="evenodd" d="M30.1023 13.4458C30.1023 13.4458 30.0041 13.5442 29.9137 13.7886C29.8435 13.7156 29.7833 13.6337 29.7346 13.5449C29.5994 13.3196 29.3913 13.0324 28.9074 13.1975C28.8998 13.0447 28.8886 12.9645 28.9066 12.8553C28.9867 12.8371 29.23 12.6399 29.4732 12.3516C29.644 12.1546 29.8036 11.9283 29.912 11.6406C29.9839 11.5857 30.1082 11.4944 30.2714 11.3884C30.5041 11.2277 30.7838 11.0084 30.8269 10.7645C30.7178 10.8084 30.4851 10.9182 30.1353 10.901C30.2701 10.8388 30.4773 10.7728 30.4512 10.5033C30.5058 10.4667 30.5494 10.4411 30.5494 10.4411C30.5083 10.4275 30.4651 10.4215 30.4219 10.4232C30.4144 10.3978 30.4035 10.3616 30.3417 10.3797C30.2798 10.3979 30.2697 10.3981 30.2616 10.4236C30.2362 10.4311 30.1524 10.4239 30.0906 10.4679C30.0288 10.512 29.858 10.6576 29.7926 10.6832C29.8179 10.6395 29.854 10.5741 29.854 10.5741C29.854 10.5741 29.6757 10.5926 29.5484 10.6469C29.3155 10.7276 29.0466 10.874 28.7739 11.0165C28.7992 10.9727 28.8102 10.9444 28.8281 10.9362C28.8461 10.928 28.89 10.918 28.89 10.9106C28.89 10.9032 28.8718 10.8386 28.8826 10.8125C28.9638 10.6393 29.0597 10.4734 29.1693 10.3166C29.2964 10.1449 29.3212 9.90104 29.3212 9.90104L29.8775 9.61935L31.4422 9.25549L32.4582 9.3149L32.3325 10.0179L31.7356 11.2463L31.225 12.3652L30.6403 13.0514L30.1025 13.4458L30.1023 13.4458Z" fill="#543E26"/>
<path fill-rule="evenodd" clip-rule="evenodd" d="M32.6325 10.3986C32.6325 10.3986 32.0226 11.1573 31.8518 11.2744C31.9604 11.0411 32.6307 9.6522 32.8735 9.26568C32.819 9.22213 32.746 9.22231 32.9154 8.54557C32.7709 8.88793 32.7202 9.06661 32.6004 9.15787C32.4806 9.24912 32.4657 9.22012 32.3846 9.22032C32.3998 9.19258 32.406 9.16076 32.4023 9.12932C32.4023 9.12932 31.8888 9.06867 31.5382 9.06953C31.1875 9.0704 30.4939 9.26147 30.1081 9.4153C29.8027 9.5435 29.6316 9.54392 29.5226 9.62411C29.4136 9.71534 29.3519 9.81389 29.2973 9.83947C29.2537 9.86501 29.0465 9.93105 28.9991 10.0003C28.9556 10.0724 28.8831 10.1534 28.8831 10.1717C28.8832 10.1899 28.865 10.2157 28.9197 10.197C28.9377 10.1898 29.0724 10.1165 29.225 10.0252C29.4321 9.90825 29.683 9.77299 29.865 9.69238C30.385 9.4835 30.549 9.51957 30.7817 9.47532C31.0255 9.43104 31.3749 9.32818 31.6077 9.3276C31.8407 9.31983 32.2814 9.32594 32.3834 9.34393C32.3398 9.38051 32.3035 9.42428 32.3221 9.57712C32.3222 9.6208 32.2858 9.66817 32.2506 9.77385C32.1423 10.0727 31.936 10.5683 31.8211 10.8199C31.6619 11.1623 31.4807 11.4505 31.3911 11.629C31.3016 11.8076 31.1047 12.2777 30.9093 12.5295C30.7138 12.7813 30.6117 12.9344 30.5504 12.9893C30.4891 13.0441 30.0488 13.369 30.082 13.4855C30.1621 13.4599 30.6677 13.2681 31.0342 12.8534C31.4006 12.4388 31.4731 12.1861 31.7601 11.9596C32.0471 11.733 32.272 11.354 32.4058 11.0407C32.5179 10.749 32.4923 10.6581 32.6335 10.3993L32.6325 10.3986Z" fill="#806031"/>
<path fill-rule="evenodd" clip-rule="evenodd" d="M19.4633 16.0826C19.4633 16.0826 19.3839 16.414 19.2022 16.5784C19.0243 16.7391 18.7078 16.8781 18.6722 17.1477C18.6292 17.4171 18.99 17.5511 18.99 17.5511C18.99 17.5511 18.794 17.8756 18.7946 18.1194C18.7953 18.3707 18.7882 18.418 18.8142 18.6582C18.7854 18.6768 18.7609 18.7015 18.7424 18.7304C18.7424 18.7304 18.761 18.9634 18.9399 19.1084C19.1188 19.2534 19.2716 19.3406 19.3625 19.3039C19.3765 19.3335 19.3887 19.364 19.3992 19.395C19.3992 19.395 19.5333 19.0524 19.6235 18.7536C19.7137 18.4477 19.7939 18.4909 19.8292 18.0795C19.8644 17.668 20.2584 16.9607 20.2584 16.9607L20.5269 16.3564L20.0857 16.0153L19.4633 16.0823L19.4633 16.0826Z" fill="#B6903C"/>
<path fill-rule="evenodd" clip-rule="evenodd" d="M20.2838 16.6738C20.1932 16.7673 20.1096 16.8673 20.0337 16.973C19.9177 17.1336 19.8271 17.2793 19.6562 17.3418C19.4852 17.4044 19.376 17.4042 19.3872 17.5755C19.3985 17.7469 19.559 17.819 19.6501 17.9061C19.7488 17.9968 19.8293 18.1495 19.786 18.321C19.8405 18.2954 19.9388 18.2659 20.0293 18.0691C20.1197 17.8723 20.753 16.6729 20.753 16.6729L20.2838 16.674L20.2838 16.6738Z" fill="#685026"/>
<path fill-rule="evenodd" clip-rule="evenodd" d="M22.7862 13.9043C22.7862 13.9043 22.8403 13.7588 22.7856 13.6533C22.7306 13.5442 22.3993 13.5086 22.2351 13.3851C22.0636 13.2581 21.8558 13.1701 21.6848 13.2264C21.7101 13.1644 21.8118 13.0293 21.728 13.0005C21.6477 12.9752 21.3497 13.1106 21.2697 13.1727C21.1897 13.2348 21.0077 13.308 20.9716 13.352C20.9355 13.396 20.8735 13.4797 20.837 13.4433C20.8004 13.418 20.7823 13.3525 20.7204 13.3889C20.6586 13.4253 20.3611 13.6701 20.3065 13.8123C20.2519 13.9545 20.1291 14.2716 19.7587 14.6328C19.3883 14.9939 19.2286 15.2276 19.3381 15.362C19.4476 15.4963 19.4985 15.3981 19.517 15.5144C19.5313 15.6286 19.5255 15.7445 19.4996 15.8567C19.4564 16.0462 19.3841 16.2247 19.4824 16.2609C19.7339 16.3404 19.9776 16.1877 20.0322 16.2341C20.1416 16.332 19.9714 16.6857 20.23 16.7542C20.4925 16.8255 20.7507 16.691 20.7507 16.691L21.7031 16.1753L22.6195 15.6889L23.0866 14.7592L22.8329 13.9844L22.7847 13.9043L22.7862 13.9043Z" fill="#D4B968"/>
<path fill-rule="evenodd" clip-rule="evenodd" d="M21.8916 16.1239C21.8916 16.1239 21.7306 15.8805 21.9269 15.665C22.1232 15.4494 22.403 15.358 22.5119 15.2231C22.491 15.1975 22.4631 15.1786 22.4316 15.1688C22.5038 15.0389 22.6141 14.9344 22.7477 14.8693C22.693 14.8149 22.62 14.7714 22.5401 14.7716C22.3615 14.772 22.2523 14.8815 22.0886 14.8819C21.9286 14.8823 21.9101 14.8022 21.9101 14.8022C21.9101 14.8022 22.1796 14.7761 22.1536 14.6559C22.1279 14.5285 22.0813 14.5287 22.0813 14.5287C22.0813 14.5287 22.6013 14.3114 22.692 14.1959C22.7827 14.0805 22.7715 13.9445 22.7896 13.8899C22.8513 13.8898 23.2113 13.6995 23.3572 13.7793C23.5031 13.8591 23.4016 14.0778 23.4016 14.0778C23.4016 14.0778 23.8417 13.7453 24.0655 13.4198C24.2621 13.4375 24.3532 13.2844 24.4972 13.284C24.6757 13.2836 24.9567 13.5268 25.0124 14.0472C25.0497 14.3456 25.1046 14.5166 25.0514 15.0448C25.0267 15.3434 25.0354 15.9808 25.1265 16.2969C25.1888 16.548 25.3344 16.5222 25.3344 16.5222C25.3122 16.5989 25.2681 16.6673 25.2074 16.7191C25.1093 16.8103 25.0991 17.0508 25.1101 17.1417C25.1247 17.2082 25.1432 17.2738 25.1653 17.3382C25.1653 17.3382 25.0492 17.4731 25.0202 17.5644C24.9949 17.6554 24.8751 17.7176 24.7875 17.7178C24.6999 17.718 24.7438 17.7105 24.6274 17.7182C24.511 17.7259 24.4746 17.744 24.4016 17.7188C24.3286 17.6935 24.274 17.6644 24.3027 17.431C24.3276 17.1979 23.4015 16.6578 23.4015 16.6578L21.8882 16.1227L21.8916 16.1239Z" fill="#CCA849"/>
<path fill-rule="evenodd" clip-rule="evenodd" d="M20.1607 18.429C20.1607 18.429 20.493 18.8688 21.8548 18.8654C22.5028 18.8638 22.7285 18.8014 22.8625 18.7646C23.0081 18.7277 23.5536 18.5118 24.1018 17.8622C24.5955 17.2749 24.4857 17.0349 24.4857 17.0349L24.1976 16.992L23.2619 17.1217L20.4952 18.3082L20.1595 18.429L20.1607 18.429Z" fill="#585136"/>
<path fill-rule="evenodd" clip-rule="evenodd" d="M21.1765 18.5358C21.1765 18.5358 19.9975 18.801 19.9957 18.0546C19.9939 17.3264 20.7202 16.56 20.902 16.4249C21.091 16.2896 21.5421 16.1353 21.5421 16.1353L22.6307 16.1326L22.8394 16.682L22.7514 17.869L21.1765 18.5355L21.1765 18.5358Z" fill="#252211"/>
<path fill-rule="evenodd" clip-rule="evenodd" d="M22.2599 16.356C22.2599 16.356 22.0338 16.1489 21.5211 16.4298C21.0085 16.7107 20.5947 17.2961 20.5706 17.8268C20.5463 18.2963 20.9585 18.6449 21.5994 18.6616C22.0763 18.6784 22.3639 18.6232 22.5095 18.5874C22.4729 18.5438 22.283 18.3076 22.283 18.3076L22.2602 16.3562L22.2599 16.356Z" fill="#C3B378"/>
<path fill-rule="evenodd" clip-rule="evenodd" d="M22.0382 16.4728C22.0382 16.4728 21.9836 16.4292 21.8223 16.517C21.6878 16.5893 21.4918 16.7801 21.3392 16.9152C21.241 16.9956 21.1792 17.032 21.1236 17.094C20.8985 17.3641 20.7102 17.8052 20.8202 18.0233C20.9302 18.2415 21.291 18.4918 22.2081 18.3185L22.0356 16.473L22.0382 16.4728Z" fill="#E6D89C"/>
<path fill-rule="evenodd" clip-rule="evenodd" d="M21.7406 16.9251C21.7406 16.9251 21.5955 17.1513 21.5964 17.5118C21.5973 17.8795 21.8064 18.465 22.5711 18.5068C23.1573 18.5419 23.5482 17.6599 23.9734 17.3166C24.2967 17.0537 24.4933 17.0458 24.4933 17.0458C24.4933 17.0458 24.1612 16.6866 23.2754 16.2225C22.4004 15.7549 21.4208 15.6954 20.891 16.4177C21.1422 16.3988 21.9536 16.1892 21.9536 16.1892L22.3509 16.3157L21.7406 16.9254L21.7406 16.9251Z" fill="#252211"/>
<path fill-rule="evenodd" clip-rule="evenodd" d="M22.8849 17.3991C22.8593 17.3447 22.8409 17.2718 22.9464 17.2535C23.052 17.2353 23.0993 17.2457 23.136 17.3251C23.1727 17.4044 23.2083 17.4706 23.1544 17.5036C23.1 17.5328 22.9579 17.5041 22.8846 17.3987L22.8849 17.3991ZM22.7125 16.8862C22.7125 16.8862 22.6761 16.9117 22.6942 16.8608C22.7012 16.7991 22.7485 16.6896 22.865 16.7149C22.9814 16.7403 22.9565 16.8676 22.9374 16.9041C22.9183 16.9407 22.8213 17.0026 22.7482 16.9766C22.739 16.9743 22.7304 16.9698 22.7232 16.9635C22.716 16.9572 22.7104 16.9493 22.7068 16.9405C22.7033 16.9316 22.7018 16.922 22.7026 16.9125C22.7035 16.903 22.7065 16.8938 22.7115 16.8857L22.7125 16.8862Z" fill="#6F674D"/>
<path fill-rule="evenodd" clip-rule="evenodd" d="M12.8581 17.1434C12.8581 17.1434 13.1467 17.3587 13.4812 17.3495C13.8124 17.3412 14.2375 16.9982 14.4336 16.779C14.5496 16.6513 14.6489 16.5164 14.7566 16.4106C14.8476 16.3194 14.9092 16.2755 14.9527 16.2135C15.0145 16.1414 15.0796 16.0058 15.1124 15.9618C15.0324 16.024 14.9163 16.1337 14.7962 16.2067C14.68 16.279 14.4291 16.415 14.3271 16.4517C14.2291 16.4884 13.2109 17.0305 13.2109 17.0305L12.8581 17.1434Z" fill="#AC924C"/>
<path fill-rule="evenodd" clip-rule="evenodd" d="M13.2915 14.4521C13.2915 14.4521 13.4513 14.3425 13.7608 14.2724C14.0591 14.1997 14.6597 14.1427 14.6597 14.1427L15.1554 14.3575L15.3538 15.1034L14.9957 15.88L14.5378 16.1691L14.0149 15.3331L13.2927 14.4536L13.2915 14.4521Z" fill="#9F8E57"/>
<path fill-rule="evenodd" clip-rule="evenodd" d="M12.6453 15.1199L12.4743 15.2483C12.4743 15.2483 12.518 15.168 12.5537 14.9241C12.5893 14.6802 12.7774 14.0862 13.0533 13.7432C13.3292 13.4003 13.322 13.4186 13.322 13.4186C13.2965 13.414 13.2704 13.4149 13.2453 13.4212C13.2202 13.4275 13.1967 13.4391 13.1764 13.4552C13.2127 13.3744 13.445 13.0859 13.6777 12.9413C13.9104 12.7967 14.0013 12.7511 14.2454 12.8679C14.4895 12.9847 14.5516 13.0455 14.7301 13.0378C14.9087 13.0302 15.0608 12.8404 15.0608 12.8404C15.0608 12.8404 15.0976 12.9568 14.9636 13.2266C14.8297 13.4965 14.2994 14.0474 14.2994 14.0474L13.1944 14.8073L12.6453 15.1207L12.6453 15.1199Z" fill="#EAC970"/>
<path fill-rule="evenodd" clip-rule="evenodd" d="M13.4622 14.3608C13.4622 14.3608 14.2636 14.468 14.5069 14.2418C14.5142 14.2673 14.5435 14.2672 14.5435 14.2854C14.5416 14.2992 14.5352 14.3119 14.5254 14.3217C14.5519 14.3174 14.5786 14.3149 14.6055 14.3143C14.6376 14.3238 14.6706 14.3298 14.7039 14.3323C14.7308 14.3317 14.7576 14.3291 14.7841 14.3247C14.7816 14.3428 14.7755 14.3602 14.7661 14.3759C14.7568 14.3916 14.7443 14.4052 14.7296 14.416C14.7661 14.4159 14.8016 14.423 14.8017 14.4521C14.8017 14.4811 14.8092 14.5687 14.7655 14.587C14.7294 14.5971 14.6908 14.5946 14.6563 14.5799C14.6594 14.6488 14.6783 14.7161 14.7115 14.7765C14.7838 14.911 14.9378 15.064 15.1441 15.0193C15.1441 15.0193 15.2537 15.2811 14.7965 15.8647C14.735 15.945 14.6696 16.0544 14.5899 16.1456C14.5584 16.2145 14.5345 16.2865 14.5184 16.3605C14.5184 16.3605 15.2933 16.0601 15.5136 15.3786C15.7378 14.6936 15.7798 14.0201 15.7346 13.3904C15.7267 13.2119 15.6973 13.0847 15.6534 12.9936C15.5437 12.7681 15.2378 12.8053 15.1145 12.9331C14.9364 13.1121 14.6389 13.5568 14.2247 13.8636C13.8031 14.1704 13.7852 14.2247 13.4613 14.3608L13.4622 14.3608Z" fill="#D7BC6B"/>
<path fill-rule="evenodd" clip-rule="evenodd" d="M12.5038 15.3462C12.5038 15.3462 12.3511 15.4375 12.2718 15.7788C12.1925 16.1284 12.3457 16.554 12.4341 16.6885C12.5226 16.8229 12.7234 17.1903 13.1382 17.2075C13.2408 17.2067 13.3423 17.1854 13.4366 17.1449C13.5812 17.0781 13.7168 16.9934 13.8401 16.8926C14.0183 16.7575 14.1635 16.6408 14.1452 16.6298C14.1015 16.6116 13.0436 15.7404 13.0436 15.7404L12.6455 15.2983L12.5036 15.3467L12.5038 15.3462Z" fill="#585136"/>
<path fill-rule="evenodd" clip-rule="evenodd" d="M13.5051 16.7926C13.5051 16.7926 13.7199 16.7741 13.8471 16.6936C13.9744 16.6131 13.0984 15.7489 13.0984 15.7489L13.1626 16.6847L13.5051 16.7926Z" fill="#453A25"/>
<path fill-rule="evenodd" clip-rule="evenodd" d="M12.5727 15.2802C12.5727 15.2802 12.4641 15.4881 12.4642 15.5428C12.4464 15.7212 12.5025 16.2817 12.5466 16.4599C12.5908 16.6492 12.8281 16.9361 13.1341 16.9353C13.3232 16.9349 13.5853 16.8178 13.5852 16.7888C13.5851 16.7523 13.3155 16.7174 13.2424 16.582C13.1986 16.5101 13.1799 16.3311 13.1694 16.1502C13.1619 16.0338 13.1616 15.9064 13.2051 15.8621C13.3033 15.7527 13.3205 15.4394 13.3205 15.4394L13.6683 14.7894L13.2087 14.7905L12.6597 15.1341L12.5727 15.2802Z" fill="#84754B"/>
<path fill-rule="evenodd" clip-rule="evenodd" d="M12.4385 15.481C12.4385 15.481 12.7973 15.0032 13.1215 14.8929C13.4457 14.7827 13.5911 14.8481 13.5911 14.8481L13.4029 15.3329L13.1342 15.6321L13.1528 15.785C13.1528 15.785 13.1098 16.1892 13.3801 16.4689C13.6503 16.7485 13.8504 16.7372 13.967 16.7369C14.0837 16.7367 14.4182 16.6374 14.5884 16.2329C14.7403 15.854 14.8665 15.3682 14.5596 14.8822C14.2596 14.3986 13.7318 14.3812 13.6298 14.3815C13.5278 14.3817 12.727 14.4238 12.4385 15.4802L12.4385 15.481Z" fill="#252211"/>
<path fill-rule="evenodd" clip-rule="evenodd" d="M21.6863 17.0782C21.5515 17.0166 21.678 16.6378 21.8124 16.5208C21.9467 16.4038 22.1175 16.269 22.4162 16.2498C22.5252 16.2423 22.631 16.3112 22.6131 16.3842C22.588 16.5189 22.3991 16.7087 22.2284 16.8438C21.9922 17.0301 21.8393 17.1469 21.6863 17.0782Z" fill="#F7F7E7"/>
<path fill-rule="evenodd" clip-rule="evenodd" d="M14.3998 15.0319C14.4982 15.0244 14.6258 15.1033 14.6515 15.2098C14.6772 15.3261 14.5905 15.5594 14.4011 15.5599C14.2482 15.5602 14.1676 15.3711 14.1675 15.3166C14.1691 15.2718 14.1815 15.228 14.2036 15.1891C14.2108 15.178 14.2287 15.0505 14.3998 15.0319Z" fill="#F8F6DE"/>
<path fill-rule="evenodd" clip-rule="evenodd" d="M12.98 15.1191C12.98 15.1191 12.729 15.2361 12.6132 15.48C12.5305 15.6601 12.5059 15.8615 12.5427 16.0562C12.5611 16.1471 12.6527 16.3725 12.7148 16.4525C12.7769 16.5325 12.8608 16.587 12.9227 16.5794C12.9846 16.5718 13.1114 16.4078 13.1111 16.3097C13.1109 16.2115 13.1173 15.7963 13.2368 15.5702C13.3418 15.3443 12.9808 15.1194 12.9808 15.1194L12.98 15.1191Z" fill="#D4C38B"/>
<path fill-rule="evenodd" clip-rule="evenodd" d="M13.0165 15.1009C12.9728 15.1264 12.9002 15.1631 12.9183 15.2103C12.9367 15.2539 13.0896 15.2819 13.1446 15.3883C13.2068 15.4974 13.2071 15.6138 13.189 15.6685C13.2365 15.6458 13.2796 15.6148 13.3162 15.577C13.3961 15.4858 13.494 15.362 13.5777 15.3618C13.6325 15.3617 13.687 15.387 13.7381 15.3868C13.8183 15.3866 13.8981 15.361 13.909 15.2772C13.9267 15.168 13.7556 15.07 13.6572 15.0885C13.6753 15.0164 13.7005 14.9101 13.6201 14.8373C13.5398 14.7645 13.2891 14.8928 13.2344 14.9294C13.1798 14.9661 13.0165 15.1011 13.0165 15.1011L13.0165 15.1009Z" fill="#E2D59D"/>
<path fill-rule="evenodd" clip-rule="evenodd" d="M18.8206 22.7359L19.359 22.5754L19.5122 22.6843C19.5122 22.6843 19.6217 22.917 19.7932 22.9456C19.7387 23.0622 19.5969 23.1621 19.6045 23.2447C19.6122 23.3272 19.6851 23.3902 19.6851 23.3902C19.6851 23.3902 19.2027 24.1922 20.1587 24.997C19.9331 25.0885 19.6459 25.2143 19.4932 25.2866C19.6022 25.3118 19.8353 25.3578 19.934 25.4459C20.0326 25.5339 20.0327 25.562 20.1237 25.6165C20.2148 25.671 20.2695 25.7436 20.2516 25.7763C20.1896 25.74 19.9817 25.6315 19.9457 25.7334C19.9097 25.8352 19.0466 25.7975 19.0466 25.7975L17.591 26.0814C17.591 26.0814 17.6451 25.9356 17.4919 25.8013C17.3132 25.6417 17.0952 25.8095 16.8617 25.6318C16.5554 25.3995 16.5437 25.13 16.4452 25.0285C16.5433 24.9663 16.7434 24.8749 17.2202 24.8106C17.2018 24.7741 17.1396 24.6651 17.1759 24.5668C17.2192 24.4393 17.401 24.3587 17.3461 24.2064C17.4262 24.188 17.4625 24.1879 17.6622 23.9361C17.851 23.6844 17.9672 23.6296 18.1129 23.611C18.2585 23.5924 18.3459 23.6104 18.6148 23.3585C18.8035 23.1797 18.7414 23.027 18.7414 23.027C18.7414 23.027 18.8649 22.9866 18.8209 22.7354L18.8206 22.7359Z" fill="#CBAC5A"/>
<path fill-rule="evenodd" clip-rule="evenodd" d="M17.2298 22.8206C17.2369 22.7841 17.2662 22.7658 17.4628 22.7835C17.6594 22.8013 18.9041 22.6636 19.2427 22.6445C19.5849 22.6182 20.79 22.6332 21.3766 22.7556C21.9632 22.878 22.5569 23.0222 22.8446 23.0942C23.1328 23.1737 23.2236 23.2023 23.2126 23.2388C23.2055 23.2753 23.1408 23.3109 23.1036 23.301C23.0673 23.2938 22.1126 23.0048 21.8177 22.9441C21.5229 22.8834 20.5027 22.7215 19.9452 22.7328C19.4247 22.7415 19.217 22.7274 18.7767 22.7793C18.3362 22.8351 17.6083 22.9096 17.3898 22.8811C17.1737 22.8562 17.2184 22.8561 17.2293 22.8196L17.2298 22.8206Z" fill="#D6BC6F"/>
<path fill-rule="evenodd" clip-rule="evenodd" d="M20.1674 25.667C20.1674 25.667 20.9148 26.0693 21.1856 26.5638C21.383 26.931 21.0705 27.1139 21.0705 27.1139C21.0705 27.1139 21.4929 27.1129 21.4388 27.346C21.4137 27.4915 20.712 27.8864 20.2428 28.0952C19.7664 28.3039 19.7846 28.2931 19.5517 28.3299C19.3259 28.3669 18.7067 28.26 18.5797 28.4415C18.4527 28.623 18.5086 28.8096 18.5442 28.8386C18.5808 28.8639 18.8758 28.8997 18.8758 28.8997C18.8758 28.8997 18.8143 29.0709 18.2028 29.0907C17.5914 29.1104 17.4384 29.1542 17.402 29.2201C17.3657 29.2819 17.5185 29.2452 17.7992 29.2911C18.0796 29.3341 18.4728 29.3615 18.4728 29.3615C18.4728 29.3615 18.3456 29.471 18.0146 29.5591C17.6362 29.6582 17.0429 29.7509 16.8648 29.8605C16.9559 29.9222 17.091 30.0129 17.1532 30.0199C17.0004 30.0568 16.7856 30.1375 16.7494 30.1666C16.804 30.2029 16.8771 30.2464 16.8771 30.2464C16.8771 30.2464 16.572 30.6149 16.3939 30.7065C16.2158 30.7981 15.1902 31.2773 14.8367 31.1872C13.9551 30.9564 13.8435 29.9918 13.6286 29.9197C13.3043 29.8113 13.1519 30.0298 12.8638 29.8776C12.991 29.7863 13.0603 29.7317 13.1947 29.6694C13.0489 29.5978 12.2941 29.1218 12.2941 29.1218C12.2149 28.9503 12.127 28.7828 12.0308 28.6202C11.8845 28.3692 11.6693 28.0347 11.5078 27.7402C11.1568 27.093 11.1378 26.7945 10.8201 26.4276C10.8746 26.3555 11.0638 26.3651 11.0638 26.3651L13.7203 27.2324L18.4273 27.3571L19.647 25.6066L20.1677 25.6673L20.1674 25.667Z" fill="#DFC677"/>
<path fill-rule="evenodd" clip-rule="evenodd" d="M13.2022 28.3491C13.2306 28.3807 13.2638 28.4076 13.3005 28.429C13.3919 28.4907 13.5267 28.5634 13.6179 28.6721C13.6543 28.6175 13.745 28.5189 13.9059 28.6714C14.0668 28.8239 14.266 28.7144 14.3902 28.7503C14.5177 28.7939 14.525 28.8119 14.525 28.8119C14.525 28.8119 14.5968 28.7498 14.7577 28.6839C14.856 28.6472 14.9724 28.6215 15.0997 28.5849C15.216 28.5592 15.3434 28.5224 15.431 28.5222C15.5113 28.5765 15.7996 28.8813 16.9526 28.4275C18.0402 28.0024 18.2911 27.9545 18.4734 28.0193C18.4916 27.9756 18.5096 27.8918 18.7899 27.9021C18.7897 27.7857 18.5556 27.3893 18.5556 27.3893L17.2694 26.9521L16.5664 26.9538L14.4594 27.345L13.293 28.0143L13.2029 28.3506L13.2022 28.3491Z" fill="#C4A859"/>
<path fill-rule="evenodd" clip-rule="evenodd" d="M12.4976 27.612C12.4976 27.612 12.5235 27.8085 12.8154 28.0153C13.1039 28.222 13.1947 28.3456 13.1947 28.3456C13.1947 28.3456 13.2492 28.2735 13.2927 28.1999C13.3362 28.1197 13.3725 28.0286 13.4451 28.003C13.5907 27.9407 13.9222 28.0563 13.9951 28.0379C14.0569 28.0197 14.0384 27.8923 14.1039 27.8922C14.2568 27.8843 14.3552 27.9897 14.4099 27.9896C14.4646 27.9894 14.599 27.9819 14.6172 27.9528C14.6353 27.9237 14.6418 27.6213 14.849 27.4751C15.0745 27.3145 15.3514 27.3829 15.4249 27.4192C15.425 27.4737 15.4326 27.6086 15.5783 27.6154C15.724 27.6222 15.7383 27.5968 15.8663 27.6401C15.9944 27.6835 16.1466 27.6322 16.2163 27.8466C16.2782 27.8285 16.4238 27.8099 16.3868 27.6024C16.4587 27.5477 16.5215 27.5111 16.674 27.2959C16.7104 27.2413 16.7719 27.1792 16.8192 27.099C16.9467 27.0987 17.0995 27.0728 17.3037 27.2507C17.2419 27.2945 17.2055 27.3229 17.1876 27.3673C17.241 27.42 17.2898 27.4771 17.3334 27.5381C17.3883 27.61 17.425 27.6982 17.4942 27.7163C17.6472 27.7596 17.8983 27.697 18.1787 27.7146C18.4482 27.7322 18.6741 27.8298 18.7726 27.8914C18.8091 27.8733 18.8091 27.8659 18.9001 27.8839C18.9911 27.9019 19.0602 27.909 18.9618 27.7928C19.0163 27.8181 19.0784 27.8727 19.1329 27.8178C19.1875 27.763 19.2308 27.6829 19.3836 27.6643C19.5364 27.6457 19.5912 27.671 19.6527 27.5108C19.7324 27.314 19.4557 27.3147 19.4557 27.3147C19.4557 27.3147 19.5829 27.1977 19.7246 27.0445C19.8953 26.884 20.0913 26.6759 20.138 26.4209C20.217 25.9511 19.7582 25.8905 19.7582 25.8905L17.5353 26.5805L14.8153 26.4523L12.4991 27.6122L12.4976 27.612Z" fill="#927D49"/>
<path fill-rule="evenodd" clip-rule="evenodd" d="M10.483 21.1908C10.483 21.1908 10.4112 21.282 10.3673 21.4969C10.3234 21.7118 10.3423 21.6863 10.3062 21.8393C10.2701 21.9922 9.82582 23.5152 9.99509 24.0281C10.1644 24.5411 10.4557 24.7297 10.6386 25.1442C10.6754 25.2351 10.711 25.2897 10.7302 25.3698C10.7927 25.6389 10.7388 25.8467 10.8122 26.116C10.8378 26.2069 10.9039 26.3124 11.0023 26.4213C11.2188 26.6464 11.5714 26.8603 11.7237 27.0128C11.9389 27.2381 12.246 27.6962 12.6356 27.7387C12.8433 27.7636 13.138 27.6756 13.3815 27.5295C13.5972 27.3941 13.7301 27.2047 13.9564 27.0961C14.1163 27.0155 14.2874 26.9861 14.4402 26.9492C14.7568 26.8865 15.0445 26.8757 15.2157 26.9108C15.478 26.9649 16.0974 27.1527 16.4403 27.1519C16.7083 27.1469 16.9747 27.1096 17.2337 27.0407C17.7539 26.8866 18.383 26.6227 18.798 26.5053C19.0416 26.4327 19.2381 26.4132 19.4384 26.369C19.7805 26.288 20.0677 26.1781 20.2311 25.9701C20.1216 25.843 19.9865 25.6467 19.2581 25.6557C18.4318 25.676 17.479 26.137 17.0095 26.2111C16.54 26.2852 16.3364 26.3474 15.8115 26.1594C15.2969 25.9693 15.2796 25.8429 15.2796 25.8429C15.2796 25.8429 14.7389 25.4667 14.5107 24.5049C14.2825 23.543 14.5066 22.8412 15.0912 22.1733C15.2437 22.0018 15.2068 21.849 15.2068 21.849C15.2068 21.849 15.5915 21.3275 15.4847 20.8403C15.3671 20.3563 14.6209 20.4565 14.6209 20.4565L10.4832 21.1908L10.483 21.1908Z" fill="#6E6342"/>
<path fill-rule="evenodd" clip-rule="evenodd" d="M11.1094 22.8096C11.0774 22.87 11.0625 22.938 11.0662 23.0063C11.0736 23.1044 11.1032 23.2318 11.3986 23.5188C11.6505 23.7692 11.5965 24.0497 11.5965 24.0497C11.5965 24.0497 11.7231 24.0748 12.0659 23.9134C12.3351 23.7853 12.4261 24.0109 12.4261 24.0109C12.5044 23.9696 12.5894 23.9422 12.6772 23.9301C12.7567 23.9226 12.8336 23.8978 12.9026 23.8576C12.9026 23.8576 13.2202 24.1808 13.4973 24.333C13.7489 24.4672 13.8948 24.5578 14.0184 24.4666C14.1346 24.3861 14.1342 24.2222 14.1266 24.1495C14.0976 24.0825 14.0608 24.019 14.0172 23.9604C13.9367 23.8442 13.809 23.7096 13.8003 23.6009C13.7814 23.3499 13.9883 23.0506 13.9442 22.978C13.9001 22.9054 13.7366 22.8876 13.3328 23.0343C12.9146 23.1735 11.1077 22.8103 11.1077 22.8103L11.1094 22.8096Z" fill="#39331F"/>
<path fill-rule="evenodd" clip-rule="evenodd" d="M12.0673 24.4346C12.0673 24.4346 11.8594 24.2386 11.9298 23.2844C12.0178 23.2829 12.1057 23.2912 12.1919 23.3092C12.1919 23.3092 12.3068 24.0481 12.0673 24.4346Z" fill="#292311"/>
<path fill-rule="evenodd" clip-rule="evenodd" d="M10.5795 20.4625C10.6084 20.441 10.6352 20.4169 10.6595 20.3903C10.5878 20.5251 10.2568 21.0648 10.5284 21.9125C10.8 22.7564 11.4786 23.3845 12.3124 23.4117C13.1462 23.4389 13.5835 23.0298 14.0831 22.4171C14.279 22.1728 14.5041 21.8662 14.7038 21.6583C15.0015 21.3334 15.2343 21.2418 15.2336 20.9289C15.232 20.2881 14.5758 20.0019 13.6103 19.7168C12.6448 19.4317 11.7747 19.4693 11.3237 19.6672C10.8838 19.8829 10.695 20.1092 10.5793 20.4628L10.5795 20.4625Z" fill="#252211"/>
<path fill-rule="evenodd" clip-rule="evenodd" d="M13.6883 24.7182L13.7602 24.6815C13.7602 24.6815 13.7775 24.3935 13.8941 24.4009C14.0106 24.4188 14.0657 24.5718 14.0548 24.6263C14.0477 24.6808 14.0189 24.7721 13.9022 24.7613C13.7493 24.7653 13.6876 24.7182 13.6876 24.7182L13.6883 24.7182Z" fill="#3F3824"/>
<path fill-rule="evenodd" clip-rule="evenodd" d="M13.3611 23.4958C13.3611 23.4958 13.433 23.4701 13.5213 23.5573C13.5933 23.5571 13.9072 23.5198 14.0057 23.5815C14.1043 23.6432 14.1334 23.6976 14.1334 23.6976C14.1334 23.6976 13.766 23.7787 13.5654 23.699C13.3614 23.6304 13.3611 23.4958 13.3611 23.4958Z" fill="#2D2815"/>
<path fill-rule="evenodd" clip-rule="evenodd" d="M14.9817 23.5462C14.9816 23.528 14.7847 23.3938 14.577 23.3504C14.5405 23.3433 14.5331 23.3687 14.5051 23.3688C14.4868 23.3617 14.4795 23.307 14.4795 23.307L14.3615 23.3694C14.3615 23.3694 14.3434 23.3949 14.4054 23.4413C14.46 23.4848 14.5513 23.5211 14.5769 23.5938C14.6025 23.6664 14.6026 23.6919 14.6137 23.7029C14.6209 23.71 14.7483 23.7025 14.8101 23.6659C14.8719 23.6293 14.9884 23.5695 14.9809 23.5455L14.9817 23.5462Z" fill="#82764F"/>
<path fill-rule="evenodd" clip-rule="evenodd" d="M13.1447 24.2899C13.1447 24.2899 13.1803 24.0388 13.4244 24.0271C13.6754 24.0083 13.7235 24.252 13.7235 24.252L13.5782 24.398C13.5782 24.3944 13.4686 24.2418 13.1459 24.2899L13.1447 24.2899Z" fill="#2D2816"/>
<path fill-rule="evenodd" clip-rule="evenodd" d="M14.7258 23.2046C14.7258 23.2046 14.5913 23.3506 14.2931 23.395C14.2676 23.3586 14.2127 23.286 14.2925 23.1694C14.3724 23.0528 14.4633 23.0161 14.5543 23.0521C14.5945 23.0585 14.632 23.0763 14.6624 23.1033C14.6927 23.1303 14.7148 23.1654 14.7258 23.2046Z" fill="#574F35"/>
<path fill-rule="evenodd" clip-rule="evenodd" d="M15.2759 23.3818C15.2833 23.3453 15.2578 23.3381 15.2758 23.3198C15.2937 23.3016 15.3923 23.2651 15.4106 23.283C15.4178 23.2905 15.4106 23.3195 15.4107 23.355C15.4108 23.3906 15.4109 23.427 15.3927 23.4532C15.3674 23.4898 15.2947 23.5082 15.2582 23.4975C15.2217 23.4868 15.2144 23.4357 15.2143 23.4256C15.2323 23.4184 15.276 23.4 15.2759 23.3818ZM15.8965 22.9871C15.8965 22.9689 15.9583 22.9322 15.9948 22.9322C16.0493 22.932 16.0494 22.9757 16.0569 22.9867C16.0749 22.9939 16.0748 22.9792 16.0932 23.0121C16.1115 23.0449 16.1373 23.1029 16.1189 23.1394C16.1005 23.176 16.0281 23.2014 16.0101 23.1942C15.9846 23.176 15.904 23.0125 15.8965 22.9871Z" fill="#82764F"/>
<path fill-rule="evenodd" clip-rule="evenodd" d="M14.6465 23.467C14.6465 23.467 14.7267 23.4848 14.8361 23.5758C14.7997 23.6013 14.745 23.6305 14.745 23.6305C14.745 23.6305 14.7376 23.5467 14.6465 23.4668L14.6465 23.467Z" fill="#6E6342"/>
<path fill-rule="evenodd" clip-rule="evenodd" d="M14.466 22.6665C14.4477 22.6485 14.5203 22.6047 14.564 22.6117C14.6077 22.6188 14.626 22.6481 14.6733 22.6552C14.7206 22.6622 14.728 22.6368 14.7453 22.6185C14.7625 22.6002 14.8254 22.6111 14.8362 22.6183C14.843 22.6263 14.8491 22.6347 14.8545 22.6437C14.8552 22.6298 14.8588 22.6163 14.865 22.6039C14.8712 22.5915 14.8799 22.5805 14.8906 22.5716C14.9045 22.5613 14.9206 22.5543 14.9376 22.5511C14.9547 22.5479 14.9722 22.5486 14.9889 22.5531C14.9962 22.5785 15.0329 22.6694 15.0257 22.6876C15.0186 22.7059 14.9095 22.7318 14.8909 22.7134C14.9093 22.7573 14.9897 22.8481 15.0005 22.866C15.0113 22.884 14.9205 22.9281 14.8842 22.921C14.8333 22.9176 14.5197 22.7362 14.4651 22.6672L14.466 22.6665ZM14.9414 22.061C14.9346 22.0426 14.9217 22.0272 14.9048 22.0174C14.8794 22.0102 14.7956 22.0176 14.7957 22.0613C14.7958 22.105 14.8684 22.3491 14.9496 22.4761C15.0411 22.6034 15.1031 22.7086 15.1651 22.7377C15.1845 22.7465 15.2066 22.7476 15.2269 22.7408C15.2471 22.734 15.264 22.7197 15.2742 22.7009C15.2813 22.6827 15.2992 22.548 15.2913 22.2312C15.2833 21.9144 15.2715 21.6087 15.2532 21.5905C15.2349 21.5723 15.1622 21.5727 15.1368 21.609C15.1115 21.6453 14.9485 22.0065 14.9412 22.061L14.9414 22.061Z" fill="#585136"/>
<path fill-rule="evenodd" clip-rule="evenodd" d="M14.6221 23.9257C14.6221 23.9257 14.4945 23.8459 14.3708 23.9009C14.2545 23.9559 14.2623 24.1707 14.2623 24.1707C14.2885 24.1809 14.3168 24.1845 14.3447 24.1813C14.3727 24.178 14.3994 24.168 14.4225 24.1521C14.5026 24.0974 14.6041 24.0062 14.6222 23.926L14.6221 23.9257Z" fill="#574F35"/>
<path fill-rule="evenodd" clip-rule="evenodd" d="M14.863 24.2129C14.8557 24.141 14.7909 24.1411 14.7908 24.1039C14.7952 24.0861 14.8055 24.0703 14.8199 24.0591C14.8344 24.0478 14.8522 24.0417 14.8705 24.0418C14.907 24.0417 14.9426 24.0853 14.9874 24.1135C15.0311 24.1388 15.0967 24.1852 15.1041 24.2407C15.1114 24.2961 15.0326 24.4482 14.9445 24.4484C14.8564 24.4486 14.8822 24.2846 14.8638 24.212L14.863 24.2129ZM15.5655 24.1128C15.5655 24.1128 15.4199 24.1568 15.4306 24.1131C15.4413 24.0694 15.4744 24.0585 15.5217 24.0584C15.5457 24.0332 15.5779 24.0175 15.6126 24.0143C15.6324 24.0133 15.6518 24.0197 15.6671 24.0324C15.6671 24.0324 15.7654 23.9885 15.7945 24.0138C15.8236 24.0392 15.802 24.0393 15.82 24.0685C15.843 24.1009 15.8582 24.1383 15.8642 24.1776C15.8643 24.2066 15.7553 24.2688 15.6676 24.2582C15.5658 24.2366 15.5836 24.131 15.5655 24.1128ZM16.4133 23.9468C16.4133 23.9468 16.457 23.9721 16.4208 24.0015C16.3955 24.027 16.2681 24.0739 16.1587 24.0823C16.0495 24.0826 15.9514 24.1008 15.9513 24.0646C15.9512 24.0283 16.042 23.9551 16.0964 23.9368C16.1073 23.9231 16.1212 23.912 16.137 23.9044C16.1527 23.8968 16.17 23.8928 16.1875 23.8929C16.2312 23.8928 16.4021 23.8741 16.4496 23.8668C16.4932 23.8592 16.5298 23.8846 16.5042 23.9211C16.4934 23.9466 16.4133 23.9468 16.4133 23.9468ZM16.6618 22.822C16.6618 22.822 16.6073 22.9385 16.5457 22.9387C16.4837 22.9316 16.4837 22.9134 16.4836 22.8952C16.4836 22.8697 16.5453 22.8041 16.5378 22.7858C16.5198 22.7859 16.4759 22.786 16.4833 22.7423C16.4832 22.7058 16.545 22.662 16.5995 22.67C16.6406 22.6361 16.6918 22.6168 16.745 22.6152C16.8069 22.615 16.8615 22.6329 16.8616 22.6694C16.8616 22.7058 16.7898 22.7859 16.7635 22.8045C16.7345 22.8336 16.6981 22.8526 16.6618 22.8227L16.6618 22.822ZM15.8369 24.9757C15.8369 24.9757 15.7649 24.9833 15.765 25.0195C15.7651 25.0377 15.7831 25.0377 15.8087 25.0268C15.8235 25.026 15.8382 25.0234 15.8524 25.0193C15.8596 25.0267 15.8597 25.063 15.9144 25.0628C15.9593 25.0566 16.0026 25.0417 16.0418 25.0188C16.0854 25.0007 16.1218 24.9821 16.1217 24.9466C16.1033 24.8848 16.0668 24.8556 16.0123 24.8557C15.9844 24.854 15.9566 24.8604 15.9322 24.8741C15.9322 24.8741 15.9139 24.8377 15.852 24.8743C15.7902 24.911 15.7974 24.9109 15.8157 24.9291C15.8484 24.9581 15.8377 24.9771 15.8377 24.9771L15.8369 24.9757ZM15.4265 25.3554C15.4265 25.3371 15.5173 25.3004 15.5428 25.3114C15.5683 25.3186 15.6413 25.4566 15.6414 25.4713C15.6414 25.4895 15.5505 25.5334 15.5141 25.5335C15.4776 25.5336 15.4158 25.4718 15.4157 25.4617C15.4157 25.4545 15.4594 25.4436 15.4593 25.4362C15.4701 25.4182 15.4266 25.3743 15.4265 25.3561L15.4265 25.3554ZM15.1372 24.8245C15.1554 24.8173 15.1554 24.799 15.1808 24.7807C15.1887 24.7754 15.1978 24.772 15.2073 24.7707C15.2167 24.7694 15.2264 24.7703 15.2355 24.7734C15.2419 24.7619 15.2507 24.752 15.2614 24.7444C15.2721 24.7368 15.2844 24.7316 15.2973 24.7293C15.3409 24.722 15.3774 24.7291 15.3693 24.7474C15.3695 24.8021 15.406 24.8382 15.4061 24.8819C15.4062 24.9256 15.3809 24.9804 15.2901 25.0171C15.1992 25.0427 15.0753 25.043 15.0571 25.0359C15.0388 25.0287 15.0204 24.9558 15.0385 24.9193C15.0567 24.8828 15.1075 24.8428 15.1367 24.8245L15.1372 24.8245Z" fill="#82764F"/>
<path fill-rule="evenodd" clip-rule="evenodd" d="M15.2531 24.849C15.2531 24.849 15.1913 24.8856 15.1913 24.9038C15.1859 24.9215 15.1835 24.9399 15.1842 24.9583C15.1843 24.9691 15.2644 24.9509 15.2751 24.9399C15.2787 24.9326 15.2531 24.8679 15.2531 24.849Z" fill="#6E6342"/>
<path fill-rule="evenodd" clip-rule="evenodd" d="M14.7113 24.6792C14.7475 24.6865 14.8094 24.6789 14.8568 24.697C14.8933 24.7152 14.9188 24.7516 14.8825 24.7954C14.8461 24.8391 14.8107 24.9048 14.7298 24.8939C14.6388 24.8869 14.5514 24.8399 14.5513 24.8034C14.5497 24.7803 14.5527 24.7572 14.5601 24.7353C14.5676 24.7134 14.5793 24.6932 14.5946 24.6758C14.631 24.6467 14.6491 24.6649 14.711 24.6792L14.7113 24.6792Z" fill="#585136"/>
<path fill-rule="evenodd" clip-rule="evenodd" d="M14.6676 24.7158C14.6676 24.7158 14.5514 24.807 14.5222 24.851C14.4859 24.8948 14.3081 25.1208 14.2537 25.1682C14.2718 25.1363 14.2923 25.1058 14.3152 25.0771C14.2433 25.1234 14.1895 25.1929 14.1628 25.2741C14.1195 25.4091 14.4074 25.4811 14.5967 25.5353C14.7859 25.5896 14.8591 25.6067 14.8591 25.6067C14.7893 25.5022 14.7292 25.3915 14.6798 25.2759C14.6074 25.105 14.5701 25.0868 14.6172 25.0065C14.6535 24.9263 14.7081 24.8717 14.7079 24.8098C14.6859 24.7522 14.6676 24.7158 14.6676 24.7158Z" fill="#574F35"/>
<path fill-rule="evenodd" clip-rule="evenodd" d="M10.5178 25.0137C10.5443 25.0185 10.5715 25.0185 10.5979 25.0135C10.6524 25.006 11.22 24.796 11.8136 24.832C12.258 24.8577 12.6985 24.929 13.1283 25.0447C13.8752 25.2395 14.8045 25.6267 15.4058 25.8474C15.566 25.9087 15.723 26.0178 15.8383 26.0609C16.2976 26.2384 16.3156 26.2383 16.5853 26.2849C16.9022 26.3278 17.2259 26.2214 17.5644 26.1479C17.9791 26.0556 18.6889 26.0102 19.3112 25.9177C19.5125 25.8893 19.7109 25.8438 19.9044 25.7816C19.9044 25.7816 19.4105 26.2779 18.2239 26.4592C17.7443 26.5332 17.2567 26.5406 16.7751 26.481C16.3963 26.4455 16.1451 26.3914 15.9556 26.3374C15.7407 26.276 15.2996 26.1131 14.7569 25.9803C14.3779 25.8829 13.9554 25.8112 13.4711 25.7214C12.2763 25.5057 10.9797 25.2579 10.5173 25.0152L10.5178 25.0137Z" fill="#252211"/>
<path fill-rule="evenodd" clip-rule="evenodd" d="M9.17234 22.767C8.88494 23.0116 8.58 23.2454 8.28224 23.4717L7.38467 24.1649C7.07946 24.3912 6.78148 24.625 6.47604 24.8516C6.1706 25.0782 5.86561 25.2935 5.54164 25.5019C5.82904 25.2574 6.134 25.0308 6.43921 24.808C6.74442 24.5853 7.06092 24.3668 7.35533 24.141L8.2529 23.4468C8.5617 23.2204 8.85968 22.9867 9.17234 22.7675L9.17234 22.767ZM7.58768 25.3195C7.58768 25.3195 7.91101 25.0492 8.31424 24.6697C8.8154 24.199 9.42927 23.5965 9.62556 23.4871L7.58744 25.3197L7.58768 25.3195Z" fill="#CFB66C"/>
<path fill-rule="evenodd" clip-rule="evenodd" d="M7.58778 25.3193C7.74771 25.1588 7.91844 25.0019 8.08918 24.8484L8.3507 24.6221C8.43069 24.5499 8.52169 24.4688 8.60141 24.3885C8.76109 24.228 8.91739 24.0562 9.07706 23.8922C9.1562 23.8097 9.2399 23.7317 9.32777 23.6585C9.37169 23.6194 9.4205 23.5862 9.47296 23.5597C9.51682 23.5342 9.56399 23.4875 9.62565 23.4792C9.58954 23.534 9.54592 23.5596 9.50956 23.6069C9.46597 23.6435 9.4296 23.6873 9.39345 23.7236C9.31349 23.804 9.22271 23.8769 9.14273 23.9501C8.97197 24.0962 8.794 24.2389 8.62326 24.3918C8.45251 24.5446 8.29284 24.7094 8.12186 24.8627C7.93672 25.0199 7.76598 25.1732 7.58778 25.32L7.58778 25.3193ZM9.76146 23.8576C9.76146 23.8576 8.57753 25.0221 8.33392 25.2118L9.76146 23.8576Z" fill="#CFB66C"/>
<path fill-rule="evenodd" clip-rule="evenodd" d="M9.76144 23.8576C9.65498 23.9814 9.5408 24.0984 9.41959 24.2078L9.06043 24.551C8.94432 24.6677 8.83517 24.7846 8.71186 24.9013C8.58469 25.0108 8.46855 25.1179 8.33392 25.219L8.68251 24.8759C8.79887 24.7592 8.92606 24.6607 9.04961 24.5438L9.39821 24.2007C9.51791 24.0804 9.63426 23.9635 9.76144 23.8576ZM9.81748 24.4872C9.70884 24.7928 9.58067 25.0911 9.43376 25.3802C9.12951 25.9927 8.67276 26.7582 8.47332 27.1485L9.81748 24.4872Z" fill="#CFB66C"/>
<path fill-rule="evenodd" clip-rule="evenodd" d="M9.81733 24.4875C9.81766 24.6222 9.78147 24.7389 9.73808 24.8554C9.69579 24.972 9.64753 25.0864 9.59348 25.198C9.53903 25.3073 9.4774 25.4241 9.41574 25.5299C9.35408 25.6356 9.28163 25.7448 9.22718 25.8543L8.8611 26.5032C8.7342 26.7196 8.61089 26.9371 8.47677 27.145C8.56715 26.9117 8.69045 26.693 8.80656 26.4779C8.93347 26.2616 9.04933 26.0453 9.16494 25.8216C9.22138 25.7101 9.27212 25.5959 9.31698 25.4792C9.37117 25.3625 9.42538 25.2531 9.46904 25.1474C9.52323 25.0309 9.56664 24.9213 9.6211 24.8158C9.6825 24.7027 9.73335 24.5933 9.81685 24.4875L9.81733 24.4875Z" fill="#CFB66C"/>
<path fill-rule="evenodd" clip-rule="evenodd" d="M11.121 27.4697C11.121 27.4697 10.7621 27.9474 10.7996 28.5517C10.897 28.2348 11.0197 27.7502 11.121 27.4697ZM11.4644 27.9469C11.4644 27.9469 11.3401 29.2432 11.2361 29.8807C11.3836 29.1437 11.4128 29.2056 11.4644 27.9469ZM13.854 29.9508C13.854 29.9508 13.3191 31.5361 13.3091 31.9763C13.4247 31.5233 13.648 30.5981 13.854 29.9496L13.854 29.9508Z" fill="#DEC270"/>
<path fill-rule="evenodd" clip-rule="evenodd" d="M15.1074 27.3618C15.1074 27.3618 15.9848 28.8013 16.6433 30.0302C16.4644 29.4114 16.0536 28.2768 15.1074 27.3618Z" fill="#CBAF59"/>
<path fill-rule="evenodd" clip-rule="evenodd" d="M17.4609 29.4784C17.9428 30.3253 18.3776 31.1981 18.7634 32.0929C18.6891 31.4741 18.4897 30.4152 17.4609 29.4784Z" fill="#E3C677"/>
<path fill-rule="evenodd" clip-rule="evenodd" d="M24.3691 31.587C24.5143 31.4956 24.8008 30.9996 25.0518 30.8754C25.3025 30.7473 25.4918 30.7214 25.717 30.4696C25.942 30.2067 26.004 30.0464 26.4981 29.8379C27.1893 29.5374 26.7124 29.1526 26.7124 29.1526C26.7884 29.0776 26.8698 29.0081 26.9557 28.9447C27.134 28.8096 27.3409 28.6451 27.3222 28.3574C27.2956 27.8734 27.2029 27.1709 26.8049 26.7641C27.1906 26.683 27.9295 26.6267 28.3883 26.5092C28.9193 26.373 29.1629 26.183 29.1629 26.183C29.1629 26.183 28.8559 25.6632 29.3497 25.1378C29.8435 24.6125 30.2469 24.2983 30.544 23.7112C30.2017 23.6684 29.6795 23.4877 28.3492 23.997C28.4212 24.0306 28.4906 24.0693 28.5571 24.1128C28.5571 24.1128 27.7385 24.3407 27.4406 24.5927C26.9209 25.0344 26.8563 25.395 26.2927 25.666C25.7291 25.9369 25.1609 25.8653 24.692 26.0849C24.2231 26.3044 24.1542 26.4904 23.983 26.5709C24.0196 26.6145 23.9761 26.6874 24.0454 26.7491C24.0018 26.8111 23.748 27.2267 23.4895 27.2274C23.5152 27.3257 23.7338 27.3979 23.7338 27.3979C23.7338 27.3979 23.574 27.5149 23.1663 27.545C23.3742 27.7604 23.5715 27.9954 24.1148 28.3363C24.0713 28.4274 23.8895 28.5627 23.9629 28.7336C24.0435 28.9046 24.2519 29.1371 25.082 29.3244C24.6597 29.3434 24.165 29.4431 23.4981 29.3537C22.8317 29.2752 22.7223 29.2282 22.3112 29.3312C22.355 29.3748 22.4714 29.3745 22.5737 29.4907C22.4645 29.4981 21.7798 29.4125 21.5476 29.719C21.3045 30.0362 21.2002 30.5573 21.2193 30.9067C21.092 30.9689 20.9684 31.0784 21.0309 31.3041C21.0934 31.5298 21.4176 31.6017 21.6255 31.743C21.8332 31.8954 21.8516 31.9498 22.0483 31.9131C22.2556 31.8689 22.5608 31.6608 22.7394 31.6603C22.918 31.6599 23.0455 31.7942 23.0455 31.7942C23.0455 31.7942 23.5292 31.56 23.5766 31.6036C23.6204 31.6471 23.5846 31.9275 23.632 31.9711C23.6801 32.0039 24.2248 31.6785 24.3703 31.587L24.3691 31.587Z" fill="#ECD592"/>
<path fill-rule="evenodd" clip-rule="evenodd" d="M34.9169 16.991C32.627 11.1205 26.9992 10.0457 26.9992 10.0457L10.9507 10.0853L11.0274 16.0705L14.2234 16.0626L14.2564 29.4279L10.9982 29.436L11.013 35.4105L26.6175 35.372C30.3783 35.3627 33.3836 31.576 33.3836 31.576C38.1942 24.7124 34.9167 16.991 34.9167 16.991L34.9169 16.991ZM26.682 27.5658C26.682 27.5658 25.4623 29.3348 24.1306 29.338L21.4666 29.3446L21.3707 16.0596L24.7895 16.0512C24.7895 16.0512 26.3743 16.3785 27.4886 19.5104C27.4886 19.5104 28.9668 23.9947 26.682 27.5658Z" fill="white" fill-opacity="0.8"/>
</svg>
