<svg id="Layer_1" data-name="Layer 1" xmlns="http://www.w3.org/2000/svg" viewBox="0 0 222.78 255.48">
  <defs>
    <style>
      .cls-1 {
        fill: #224191;
      }

      .cls-2 {
        fill: #ec2326;
      }
    </style>
  </defs>
  <title>Swotchive 5ai</title>
  <g>
    <path class="cls-1" d="M221.49,40.12s116.14,64-8.58,88.27v-9.65S314.4,93.48,221.25,48Z" transform="translate(-47.88 -40.12)"/>
    <path class="cls-1" d="M246.5,77.52S216,36.54,137.87,45.6,49.24,95.15,49.24,95.15s-26.21,78.62,151,90.53l.12-4.94s-85.05,3-127.58-45.21c-20.37-26.44,21.08-54.68,34.66-59.32s59.68-24.83,130.44,3.67Z" transform="translate(-47.88 -40.12)"/>
    <path class="cls-2" d="M75.33,158.4s74.92-54.51,152.95-21.08c57.18,24.49,9.24,79.89-17.15,103.32a142.63,142.63,0,0,1-30.33,20.7c-21.71,11-60.36,26-92.61,14.64l.71-7.15s72.9,7.38,124-63.67S170,134.46,170,134.46,125.36,133.39,81,162Z" transform="translate(-47.88 -40.12)"/>
    <path class="cls-2" d="M124,295.51S1.42,301.32,84.31,218.23A11.22,11.22,0,0,1,94.57,215c2.63.58,4.71,2.13,3.37,5.88a9.19,9.19,0,0,1-2.16,3.31c-9.09,9.24-68,72.45,28.28,65.83Z" transform="translate(-47.88 -40.12)"/>
  </g>
</svg>
